<svg xmlns="http://www.w3.org/2000/svg" width="454" height="448" viewBox="0 0 454 448">
<g>
<path d="M 348.10,396.66 L 348.45,396.95 L 349.36,397.39 L 345.93,399.74 L 343.11,401.63 L 337.34,405.22 L 334.43,406.97 L 328.63,410.21 L 328.62,410.20 L 327.71,409.58 L 326.88,409.49 L 326.47,409.65 L 325.64,410.37 L 325.50,411.00 L 325.69,411.31 L 325.96,411.65 L 325.53,411.89 L 319.46,414.90 L 316.42,416.36 L 310.22,419.08 L 307.11,420.39 L 300.80,422.80 L 297.63,423.96 L 291.22,426.05 L 281.50,428.81 L 278.74,429.52 L 273.02,430.78 L 270.14,431.39 L 264.23,432.43 L 258.29,433.42 L 246.19,434.73 L 243.17,434.99 L 237.18,435.35 L 234.20,435.49 L 228.35,435.60 L 225.45,435.63 L 219.82,435.48 L 217.04,435.38 L 211.70,434.98 L 208.81,434.72 L 202.99,434.00 L 200.08,433.61 L 194.23,432.64 L 188.39,431.60 L 176.77,428.78 L 171.00,427.26 L 159.73,423.52 L 156.94,422.54 L 151.49,420.40 L 149.75,419.65 L 150.04,419.50 L 150.50,419.25 L 151.54,418.78 L 152.14,418.66 L 152.42,418.69 L 152.97,418.81 L 153.25,418.96 L 153.82,419.34 L 154.14,419.63 L 155.99,420.77 L 157.49,421.33 L 158.14,421.41 L 162.04,422.02 L 164.25,422.47 L 165.10,422.70 L 166.60,423.17 L 167.02,423.38 L 167.38,423.60 L 167.47,423.70 L 167.57,423.89 L 167.51,423.98 L 167.85,424.56 L 168.70,425.00 L 169.40,425.24 L 170.99,425.73 L 172.02,425.98 L 174.23,426.50 L 175.53,426.76 L 178.26,427.28 L 179.79,427.53 L 182.94,428.04 L 184.63,428.28 L 191.69,429.19 L 195.43,429.54 L 199.92,430.12 L 201.09,430.34 L 201.51,430.44 L 202.24,430.65 L 202.38,430.73 L 202.83,430.87 L 203.36,430.98 L 203.72,431.03 L 205.45,431.26 L 206.64,431.38 L 209.20,431.62 L 210.69,431.74 L 213.79,431.96 L 215.45,432.06 L 219.33,432.25 L 221.44,432.31 L 225.77,432.42 L 228.03,432.44 L 237.25,432.45 L 241.70,432.34 L 246.10,432.22 L 248.16,432.14 L 252.15,431.95 L 253.93,431.83 L 257.31,431.58 L 258.70,431.44 L 261.25,431.13 L 262.15,430.96 L 266.90,430.08 L 268.43,429.80 L 269.09,429.69 L 270.34,429.47 L 270.79,429.40 L 272.50,429.04 L 273.93,428.69 L 274.73,428.47 L 278.06,427.49 L 279.57,426.97 L 283.88,425.81 L 285.07,425.61 L 285.53,425.58 L 286.33,425.57 L 286.53,425.65 L 287.57,425.75 L 288.00,425.49 L 288.00,425.21 L 288.46,424.33 L 289.13,423.78 L 289.55,423.62 L 290.54,423.48 L 290.62,423.84 L 290.38,424.26 L 290.26,424.60 L 290.34,424.67 L 290.45,424.62 L 291.10,424.24 L 291.65,423.76 L 292.81,423.01 L 293.88,422.50 L 294.51,422.25 L 297.22,421.34 L 298.58,421.08 L 300.94,420.49 L 302.74,419.93 L 303.69,419.59 L 305.59,418.87 L 306.50,418.49 L 308.27,417.71 L 309.03,417.32 L 314.28,414.74 L 316.10,413.89 L 316.94,413.51 L 318.53,412.78 L 319.17,412.51 L 320.94,411.68 L 321.94,411.13 L 322.31,410.87 L 322.98,410.39 L 323.16,410.20 L 323.40,409.84 L 323.34,409.74 L 323.24,409.25 L 323.45,409.11 L 323.68,409.17 L 325.12,409.12 L 326.31,408.80 L 326.88,408.56 L 327.99,408.01 L 328.37,407.72 L 329.00,407.13 L 329.00,406.87 L 329.29,406.35 L 329.72,406.33 L 330.00,406.50 L 330.71,406.63 L 331.00,406.35 L 331.00,406.06 L 331.43,405.31 L 332.06,405.00 L 332.47,405.00 L 333.30,404.77 L 334.06,404.40 L 334.50,404.13 L 336.39,402.84 L 337.32,402.02 L 339.91,400.11 L 340.59,399.75 L 340.84,399.67 L 341.27,399.60 L 341.36,399.69 L 341.81,399.85 L 342.00,399.60 L 342.00,399.33 L 342.22,398.70 L 342.56,398.28 L 342.81,398.09 L 343.98,397.34 L 344.70,397.08 L 346.18,396.64 L 346.85,396.60 M 145.06,415.43 L 145.66,415.55 L 146.02,415.72 L 146.79,416.13 L 147.26,416.44 L 149.22,417.32 L 149.79,417.43 L 150.01,417.42 L 150.42,417.36 L 150.55,417.25 L 150.78,417.11 L 150.80,417.18 L 150.74,417.29 L 150.37,417.90 L 149.97,418.43 L 149.23,419.43 L 143.50,416.96 L 142.72,416.61 L 143.12,416.32 L 143.41,416.07 L 144.23,415.55 L 144.77,415.40 M 139.24,412.80 L 140.03,413.18 L 141.52,414.03 L 141.97,414.50 L 142.37,414.98 L 142.46,415.21 L 142.57,415.68 L 142.49,415.89 L 142.32,416.42 L 139.74,415.14 L 138.33,414.43 L 135.14,412.77 L 134.83,412.60 L 134.99,412.56 L 135.33,412.43 L 137.53,412.35 M 115.78,400.48 L 116.84,400.98 L 117.25,401.39 L 118.48,402.30 L 119.17,402.50 L 119.32,402.34 L 119.78,402.29 L 120.27,402.43 L 120.59,402.57 L 122.03,403.31 L 122.85,403.89 L 125.37,405.38 L 126.15,405.73 L 126.48,405.83 L 127.08,406.00 L 127.28,406.00 L 128.69,406.44 L 129.65,407.08 L 129.99,407.49 L 131.12,408.38 L 131.87,408.58 L 132.11,408.43 L 132.74,408.35 L 133.00,408.65 L 133.00,408.94 L 133.48,409.69 L 134.18,410.00 L 134.62,410.00 L 135.39,410.06 L 135.67,410.18 L 135.70,410.29 L 135.67,410.55 L 135.55,410.75 L 135.24,411.21 L 134.98,411.52 L 134.40,412.27 L 134.36,412.35 L 131.88,411.05 L 125.06,407.27 L 123.42,406.35 L 120.40,404.62 L 118.97,403.78 L 116.57,402.34 L 116.02,402.00 L 115.08,401.41 L 114.65,401.13 L 113.96,400.67 L 113.77,400.53 L 113.99,400.56 L 114.37,400.41 M 328.04,410.53 L 326.76,411.22 L 326.77,411.19 L 327.37,410.54 L 327.95,410.47 M 397.82,347.63 L 398.26,347.80 L 398.51,348.01 L 399.69,348.58 L 399.73,348.56 L 397.98,350.90 L 395.90,353.62 L 391.55,358.91 L 389.34,361.53 L 384.75,366.60 L 382.42,369.11 L 377.60,373.95 L 375.16,376.35 L 370.13,380.96 L 367.58,383.23 L 362.35,387.60 L 359.70,389.75 L 354.28,393.87 L 351.54,395.89 L 349.42,397.35 L 349.67,397.04 L 349.67,396.53 L 349.38,395.69 L 348.95,395.53 L 348.68,395.70 L 348.18,395.79 L 348.23,395.44 L 348.45,395.09 L 349.41,394.39 L 350.25,394.27 L 350.65,394.42 L 351.54,394.59 L 351.77,394.43 L 351.64,394.23 L 351.63,393.19 L 352.14,392.27 L 352.66,391.68 L 353.87,390.41 L 354.76,389.63 L 356.73,387.98 L 358.00,386.99 L 361.75,384.02 L 362.87,383.10 L 363.33,382.72 L 364.17,382.00 L 364.44,381.76 L 366.04,380.52 L 366.94,380.00 L 367.15,380.00 L 367.69,379.77 L 368.25,379.40 L 368.59,379.13 L 370.13,377.85 L 370.96,377.04 L 373.40,374.88 L 375.04,373.63 L 375.80,373.14 L 377.25,372.26 L 377.82,372.02 L 378.85,371.67 L 379.13,371.75 L 379.52,371.64 L 379.90,371.41 L 380.13,371.23 L 381.12,370.33 L 381.63,369.73 L 382.38,368.81 L 382.65,368.43 L 382.67,368.36 L 382.63,368.28 L 382.50,368.35 L 382.15,368.57 L 381.87,368.79 L 381.02,369.36 L 380.60,369.54 L 380.44,369.52 L 380.14,369.41 L 380.01,369.25 L 379.77,368.85 L 379.65,368.54 L 379.58,367.52 L 379.93,367.19 L 380.29,367.26 L 381.05,366.99 L 381.26,366.41 L 381.17,366.00 L 381.14,365.15 L 381.34,365.01 L 381.54,365.20 L 382.05,365.10 L 382.62,364.73 L 382.98,364.42 L 384.62,362.91 L 385.52,361.95 L 387.28,359.96 L 387.93,359.09 L 388.52,358.26 L 388.71,357.93 L 389.00,357.33 L 389.00,357.16 L 389.23,356.75 L 389.58,356.37 L 389.83,356.14 L 391.04,355.13 L 391.82,354.62 L 394.18,352.43 L 395.56,350.63 L 395.92,349.83 L 396.60,348.49 L 397.01,347.91 L 397.21,347.77 L 397.61,347.59 M 420.71,313.03 L 420.52,313.55 L 419.90,314.98 L 419.56,315.76 L 418.67,317.60 L 418.20,318.57 L 417.12,320.70 L 416.01,322.87 L 413.46,327.54 L 409.69,333.97 L 407.88,336.89 L 404.04,342.58 L 402.09,345.40 L 400.75,347.19 L 400.52,347.18 L 400.15,347.41 L 399.37,347.44 L 399.20,346.80 L 399.29,346.16 L 399.93,344.17 L 400.61,342.99 L 401.03,342.53 L 401.90,341.72 L 402.35,341.51 L 403.22,341.26 L 403.61,341.40 L 404.41,341.39 L 404.52,340.92 L 404.36,340.48 L 404.31,339.66 L 404.46,338.96 L 404.61,338.57 L 405.41,336.91 L 405.98,336.08 L 407.20,334.49 L 407.83,333.92 L 408.45,333.41 L 408.74,333.25 L 409.30,333.00 L 409.54,333.00 L 410.41,332.57 L 410.50,331.87 L 410.30,331.34 L 410.11,330.28 L 410.40,330.13 L 410.74,330.34 L 411.40,330.32 L 411.47,329.68 L 411.31,329.07 L 411.25,328.02 L 411.37,327.21 L 411.49,326.77 L 412.15,324.95 L 412.64,324.11 L 413.67,322.52 L 414.21,322.02 L 414.74,321.58 L 414.99,321.48 L 415.47,321.35 L 415.68,321.43 L 416.42,321.36 L 416.48,320.80 L 416.28,320.29 L 416.11,319.26 L 416.44,319.15 L 416.82,319.39 L 417.53,319.54 L 417.59,319.10 L 417.41,318.63 L 417.36,317.89 L 417.48,317.30 L 417.62,316.98 L 418.35,315.65 L 418.92,315.08 L 420.39,313.29 L 420.94,312.30 M 55.59,343.61 L 55.50,343.00 L 55.63,342.78 L 55.50,343.00 M 263.75,324.83 L 262.10,325.44 L 261.21,325.77 L 259.06,326.50 L 255.50,327.63 L 254.44,327.96 L 252.61,328.50 L 251.72,328.75 L 250.09,329.16 L 248.49,329.54 L 245.17,329.98 L 244.27,330.07 L 242.24,330.19 L 241.17,330.24 L 240.06,330.27 L 241.90,330.16 L 242.84,330.09 L 244.67,329.92 L 245.51,329.82 L 248.73,329.33 L 250.33,328.96 L 253.58,328.14 L 255.50,327.57 L 259.06,326.46 L 261.21,325.74 L 262.10,325.42 L 263.75,324.82 L 264.31,324.58 L 265.23,324.16 L 264.31,324.59 M 192.83,324.92 L 194.67,325.59 L 198.35,326.89 L 200.21,327.43 L 203.94,328.45 L 205.82,328.87 L 206.18,328.94 L 204.55,328.64 L 202.98,328.32 L 199.95,327.50 L 198.44,327.06 L 195.41,325.98 L 193.88,325.40 L 190.67,324.01 L 190.16,323.77 M 147.22,326.98 L 147.16,326.94 L 146.70,326.54 M 145.06,325.13 L 144.90,324.99 L 144.55,324.68 M 139.13,319.78 L 140.81,321.38 L 140.44,321.05 L 138.36,319.05 L 136.01,316.74 M 183.82,320.74 L 183.85,320.75 L 183.44,320.54 L 183.18,320.39 M 128.15,308.08 L 129.70,309.99 L 133.26,313.89 L 134.98,315.73 L 134.29,315.05 L 132.46,313.07 L 128.94,309.14 L 127.44,307.24 L 125.81,305.09 M 99.88,313.31 L 99.76,313.14 L 99.65,312.97 M 138.80,276.07 L 140.37,276.21 L 140.90,276.34 L 141.79,276.64 L 142.06,276.87 L 142.49,277.39 L 142.60,277.75 L 143.73,280.61 L 142.50,278.08 L 126.98,278.00 L 123.64,285.25 L 123.09,286.44 L 122.17,288.46 L 121.74,289.42 L 121.04,291.00 L 120.72,291.74 L 120.22,292.95 L 120.00,293.52 L 119.68,294.40 L 119.55,294.81 L 119.40,295.44 L 119.34,295.73 L 119.34,296.15 L 119.78,296.92 L 119.90,297.00 L 120.38,297.54 L 120.65,297.86 L 121.37,298.80 L 121.90,299.55 L 121.31,298.74 L 120.05,297.50 L 119.53,297.26 L 119.02,297.09 L 118.80,297.10 L 118.37,297.18 L 118.18,297.32 L 117.83,297.66 L 117.68,297.92 L 117.41,298.53 L 117.31,298.92 L 116.76,299.92 L 116.07,300.42 L 115.49,300.62 L 114.15,300.97 L 113.14,301.12 L 112.08,301.26 L 111.45,301.33 L 110.12,301.47 L 109.35,301.55 L 103.08,301.88 L 101.17,301.88 L 100.39,301.85 L 98.94,301.76 L 98.47,301.69 L 95.87,301.58 L 95.19,301.68 L 94.94,301.77 L 94.52,301.96 L 94.44,302.10 L 94.39,302.66 L 94.51,303.24 L 94.64,303.62 L 95.35,305.35 L 95.92,306.47 L 97.19,308.85 L 97.97,310.17 L 99.56,312.81 L 98.09,310.47 L 97.29,309.17 L 95.96,306.81 L 95.35,305.69 L 94.56,303.95 L 94.40,303.57 L 94.23,302.97 L 94.19,302.36 L 94.23,302.24 L 94.08,301.80 L 93.98,301.55 L 93.59,300.92 L 92.65,299.75 L 92.81,299.80 L 92.78,299.45 L 92.52,299.02 L 92.26,298.19 L 92.64,298.08 L 93.11,298.25 L 94.03,298.91 L 94.34,299.51 L 94.28,299.80 L 94.37,300.21 L 94.64,300.35 L 94.89,300.35 L 95.46,300.32 L 95.85,300.24 L 96.72,300.04 L 97.28,299.88 L 99.12,299.52 L 100.78,299.34 L 101.75,299.28 L 105.93,299.12 L 107.99,299.20 L 115.47,299.50 L 117.05,296.18 L 118.45,293.63 L 118.91,292.95 L 119.11,292.70 L 119.49,292.27 L 119.63,292.18 L 120.31,291.46 L 120.83,290.70 L 121.12,290.21 L 122.32,287.99 L 122.90,286.71 L 124.00,284.11 L 124.38,282.96 L 124.73,281.85 L 124.83,281.38 L 125.00,280.52 L 125.00,280.22 L 125.57,278.27 L 126.56,277.30 L 127.39,276.96 L 128.29,276.65 L 128.82,276.53 L 129.97,276.31 L 130.63,276.23 L 132.04,276.09 L 132.84,276.06 L 134.52,276.00 L 135.47,276.00 M 421.33,310.49 L 421.13,311.20 L 421.00,311.93 L 421.00,311.90 L 421.13,311.19 L 421.33,310.48 L 421.48,310.05 L 422.18,308.16 L 421.48,310.06 M 123.98,302.50 L 125.04,304.08 L 124.60,303.50 L 123.88,302.35 M 159.85,302.83 L 159.75,302.73 L 159.40,302.37 M 147.96,288.19 L 148.98,289.67 L 151.12,292.65 L 152.30,294.16 L 156.94,299.78 L 156.38,299.18 L 154.74,297.39 L 151.78,293.76 L 150.37,291.95 L 147.91,288.33 L 146.61,286.03 M 89.38,295.15 L 90.21,296.25 L 90.62,296.41 L 91.52,297.09 L 91.71,297.67 L 91.55,297.92 L 91.51,298.38 L 91.20,298.05 L 90.26,296.90 L 89.82,296.33 L 89.19,295.21 L 88.92,294.64 L 88.61,293.43 L 88.55,293.10 M 178.69,283.55 L 180.88,285.67 L 181.95,286.69 L 184.00,288.50 L 186.02,290.25 L 189.17,292.47 L 186.05,290.27 L 184.04,288.54 L 182.01,286.75 L 180.95,285.74 L 178.78,283.64 L 177.61,282.46 L 177.61,282.46 M 92.03,280.38 L 90.70,283.75 L 90.21,285.13 L 89.33,287.71 L 89.04,288.73 L 88.65,290.28 L 88.94,288.93 L 89.16,288.02 L 89.87,285.87 L 90.26,284.73 L 91.33,282.03 L 92.27,279.79 M 246.16,221.53 L 246.14,226.46 L 246.28,229.02 L 246.68,234.22 L 247.02,236.95 L 247.71,241.71 L 247.32,239.33 L 247.02,237.41 L 246.58,233.94 L 246.39,232.26 L 246.15,229.21 L 246.02,225.00 L 246.02,221.38 L 246.21,219.50 M 252.42,192.52 L 252.58,192.06 L 253.98,188.47 L 255.36,185.64 M 297.31,175.87 L 295.93,177.12 L 293.26,179.96 L 291.93,181.42 L 289.40,184.60 L 288.16,186.23 L 286.70,188.40 L 288.00,186.43 L 289.20,184.82 L 291.64,181.68 L 292.90,180.26 L 295.43,177.52 L 296.71,176.34 L 299.26,174.13 L 299.58,173.91 M 258.88,178.61 L 259.15,178.10 L 259.23,177.97 M 320.10,162.19 L 318.05,163.14 L 316.98,163.64 L 314.65,164.81 L 312.29,166.01 L 307.46,168.71 L 306.31,169.38 L 304.18,170.68 L 302.10,172.07 L 302.64,171.66 L 303.81,170.65 L 304.25,170.20 L 305.04,169.34 L 305.25,169.00 L 305.54,168.38 L 305.48,168.20 L 305.45,167.46 L 305.74,167.34 L 306.01,167.51 L 306.71,167.61 L 307.00,167.31 L 307.00,167.00 L 307.26,166.37 L 307.63,166.27 L 307.87,166.42 L 308.42,166.44 L 308.94,166.27 L 309.25,166.10 L 310.62,165.22 L 311.34,164.57 L 313.97,162.84 L 315.78,162.37 L 316.71,162.48 L 319.27,162.37 L 320.17,162.17 M 265.31,168.56 L 264.61,169.55 L 265.37,168.42 L 265.92,167.73 M 372.97,165.90 L 373.24,165.88 L 373.35,165.84 L 373.29,165.97 L 373.08,165.96 L 372.74,165.79 M 372.68,136.92 L 372.78,137.99 L 372.88,139.13 L 373.07,142.04 L 373.16,143.58 L 373.31,147.02 L 373.38,148.76 L 373.49,152.35 L 373.54,154.12 L 373.59,157.47 L 373.61,159.08 L 373.61,161.82 L 373.60,162.45 L 373.58,163.23 L 373.53,163.28 L 373.29,163.57 L 373.13,163.82 L 372.62,164.00 L 372.31,163.47 L 372.18,162.95 L 371.94,161.73 L 371.84,160.92 L 371.67,159.17 L 371.61,158.15 L 371.46,153.76 L 371.53,151.39 L 371.76,146.67 L 372.05,144.63 L 372.43,141.59 L 372.60,139.87 L 372.65,139.13 L 372.70,137.75 L 372.68,137.17 L 372.63,136.50 M 289.48,145.81 L 287.74,146.98 L 284.32,149.38 L 282.68,150.66 L 279.44,153.27 L 277.90,154.66 L 274.85,157.49 L 273.40,158.98 L 270.55,162.02 L 269.43,163.36 L 270.09,162.52 L 272.52,159.67 L 277.79,154.53 L 279.13,153.30 L 281.92,151.02 L 286.21,147.86 L 288.71,146.16 L 292.66,143.89 M 324.36,160.83 L 324.15,160.78 L 323.16,161.02 L 322.80,161.13 L 323.16,160.97 L 324.12,160.75 L 324.36,160.82 L 325.30,160.73 L 326.04,160.42 L 325.30,160.74 M 296.73,141.64 L 296.82,141.59 L 296.86,141.57 M 372.46,135.42 L 372.52,135.69 L 372.52,135.73 L 372.50,135.63 L 372.39,135.28 M 351.78,129.53 L 349.86,129.43 L 346.71,129.46 L 340.39,129.63 L 337.43,129.92 L 330.40,130.80 L 329.05,131.03 L 330.33,130.79 L 333.49,130.27 L 339.75,129.64 L 342.87,129.40 L 348.99,129.34 M 201.41,278.77 L 201.29,278.70 L 200.83,278.57 L 200.55,278.51 L 199.77,278.40 L 199.34,278.35 L 198.25,278.26 L 197.67,278.21 L 196.27,278.15 L 195.54,278.11 L 193.84,278.06 L 192.96,278.04 L 190.97,278.02 L 187.67,278.00 L 174.26,278.00 L 174.37,277.82 L 174.80,277.36 L 175.20,277.11 L 176.83,276.64 L 178.59,276.39 L 179.71,276.30 L 182.09,276.14 L 183.40,276.09 L 186.09,276.01 L 187.44,276.00 L 190.14,276.01 L 191.38,276.05 L 193.77,276.15 L 194.75,276.23 L 196.55,276.42 L 197.11,276.55 L 197.62,276.68 L 197.77,276.76 L 198.00,276.91 L 198.00,277.00 L 198.60,277.71 L 199.49,278.00 L 200.06,278.00 L 201.33,278.29 L 201.67,278.72 L 201.50,279.00 L 201.55,278.92 Z" fill="rgba(0,0,0,1)"/>
<path d="M 240.17,290.28 L 241.13,292.31 L 241.60,293.30 L 242.43,295.08 L 242.83,295.94 L 243.50,297.41 L 243.82,298.11 L 244.31,299.23 L 244.53,299.74 L 244.82,300.45 L 245.00,301.00 L 245.00,301.07 L 245.22,301.40 L 245.36,301.61 L 245.84,302.20 L 246.10,302.53 L 246.82,303.34 L 247.20,303.77 L 248.11,304.78 L 249.07,305.83 L 251.48,308.36 L 255.59,312.57 L 257.05,314.03 L 259.64,316.77 L 260.86,318.08 L 262.83,320.33 L 263.27,320.85 L 264.00,321.76 L 264.33,322.19 L 264.83,322.88 L 265.05,323.20 L 265.30,323.66 L 265.34,324.05 L 265.23,324.16 L 264.31,324.58 L 263.75,324.82 L 262.10,325.42 L 261.21,325.74 L 259.06,326.46 L 255.50,327.57 L 253.58,328.14 L 250.33,328.96 L 248.73,329.33 L 245.51,329.82 L 244.67,329.92 L 242.84,330.09 L 241.90,330.16 L 239.81,330.28 L 238.72,330.34 L 236.24,330.42 L 232.00,330.51 L 230.01,330.55 L 225.90,330.54 L 223.86,330.53 L 220.00,330.44 L 218.14,330.38 L 214.97,330.22 L 214.25,330.17 L 213.00,330.07 L 212.42,330.02 L 211.50,329.90 L 209.60,329.62 L 205.82,328.87 L 203.94,328.45 L 200.21,327.43 L 198.35,326.89 L 194.67,325.59 L 192.83,324.92 L 189.21,323.36 L 187.40,322.55 L 183.82,320.74 L 182.05,319.79 L 178.53,317.72 L 176.79,316.64 L 173.34,314.31 L 168.24,310.51 L 166.87,309.43 L 164.09,306.97 L 162.71,305.70 L 159.97,302.96 L 157.26,300.16 L 152.30,294.16 L 151.12,292.65 L 148.98,289.67 L 147.96,288.19 L 146.18,285.34 L 145.35,283.94 L 144.01,281.31 L 142.60,277.75 L 142.49,277.39 L 142.06,276.87 L 142.05,276.87 L 142.99,277.15 L 143.38,277.35 L 144.24,277.64 L 145.06,277.81 L 145.59,277.88 L 147.96,278.14 L 149.47,278.23 L 152.66,278.39 L 154.44,278.42 L 158.07,278.47 L 159.91,278.45 L 163.60,278.39 L 165.32,278.32 L 168.67,278.16 L 170.08,278.04 L 171.45,277.92 L 172.04,277.85 L 173.16,277.70 L 173.62,277.62 L 174.45,277.45 L 174.74,277.35 L 174.91,277.29 L 174.80,277.36 L 174.37,277.82 L 174.22,278.07 L 174.38,278.71 L 174.55,279.08 L 175.41,280.14 L 175.67,280.44 L 176.35,281.16 L 177.61,282.46 L 178.78,283.64 L 180.95,285.74 L 182.01,286.75 L 184.04,288.54 L 186.05,290.27 L 189.96,293.03 L 191.95,294.33 L 196.30,296.52 L 197.44,297.05 L 199.90,298.07 L 203.96,299.59 L 204.85,299.91 L 206.40,300.45 L 207.13,300.70 L 208.38,301.10 L 208.98,301.28 L 209.96,301.55 L 210.42,301.67 L 211.16,301.81 L 211.84,301.93 L 212.59,301.81 L 212.88,301.69 L 213.00,301.12 L 213.00,300.88 L 212.75,300.45 L 213.05,300.82 L 213.56,301.28 L 214.57,302.10 L 215.00,302.26 L 215.30,302.34 L 215.59,302.38 L 216.26,302.46 L 216.71,302.49 L 217.69,302.57 L 218.28,302.60 L 219.53,302.67 L 220.25,302.70 L 223.32,302.81 L 225.10,302.84 L 228.79,302.91 L 230.75,302.92 L 234.77,302.93 L 237.04,302.92 L 237.98,302.90 L 239.75,302.87 L 240.47,302.83 L 241.81,302.76 L 242.33,302.71 L 243.27,302.60 L 243.62,302.53 L 244.24,302.37 L 244.44,302.28 L 245.00,301.84 L 245.00,301.54 L 244.82,300.88 L 244.53,300.10 L 244.31,299.56 L 243.82,298.37 L 243.50,297.65 L 242.83,296.12 L 242.43,295.24 L 241.60,293.41 L 241.13,292.40 L 240.17,290.33 L 239.65,289.22 L 237.45,284.61 L 239.65,289.18 M 210.62,296.22 L 210.82,296.54 L 210.76,296.75 L 211.03,297.99 L 211.65,299.10 L 211.94,299.47 L 211.51,299.01 L 211.10,298.67 L 210.62,297.88 L 210.57,296.89 L 210.72,296.64 L 210.63,296.26 L 210.22,296.09 M 90.21,285.12 L 89.33,287.70 L 89.04,288.73 L 88.57,290.60 L 88.48,291.29 L 88.41,292.36 L 88.48,291.29 L 88.57,290.60 L 89.04,288.73 L 89.33,287.71 L 90.21,285.13 L 90.70,283.75 L 90.71,283.74 M 91.32,282.17 L 92.03,280.38 L 92.04,280.36 M 92.04,280.34 L 92.75,278.59 L 92.75,278.58 M 130.63,276.23 L 129.97,276.31 L 128.82,276.53 L 128.29,276.65 L 127.39,276.96 L 126.56,277.30 L 125.97,277.88 L 126.40,277.32 L 126.93,277.04 L 128.31,276.56 L 129.52,276.32 L 130.24,276.24 L 131.63,276.13 M 189.52,276.01 L 187.44,276.00 L 186.09,276.01 L 183.40,276.09 L 182.09,276.14 L 179.71,276.30 L 178.59,276.39 L 176.83,276.64 L 175.33,277.07 L 175.35,277.05 L 175.83,276.81 L 176.36,276.67 L 176.71,276.60 L 178.37,276.36 L 179.46,276.27 L 181.80,276.12 L 183.12,276.07 L 185.81,276.00 L 187.19,276.00 M 133.95,276.02 L 132.84,276.06 L 132.41,276.08 L 133.35,276.01 M 94.56,274.33 L 93.92,275.84 L 94.55,274.36 L 95.03,273.24 L 95.04,273.22 M 114.49,230.94 L 111.75,236.86 L 110.44,239.68 L 109.14,242.46 L 108.53,243.77 L 107.33,246.33 L 106.78,247.50 L 104.23,252.97 L 102.63,256.40 L 101.89,258.02 L 100.43,261.18 L 99.75,262.66 L 98.44,265.57 L 97.83,266.92 L 96.64,269.57 L 96.10,270.81 L 95.10,273.09 L 96.09,270.83 L 96.63,269.60 L 97.82,266.94 L 98.43,265.59 L 99.74,262.68 L 100.42,261.20 L 101.88,258.03 L 102.62,256.41 L 104.22,252.98 L 106.78,247.50 L 107.88,245.16 L 110.25,240.07 L 111.44,237.51 L 113.81,232.41 L 114.89,230.07 M 124.74,208.53 L 121.80,215.00 L 120.23,218.46 L 119.06,221.00 L 118.44,222.36 L 115.85,228.00 L 114.98,229.87 L 117.03,225.42 L 117.52,224.36 L 118.39,222.46 L 119.51,220.00 L 120.56,217.68 L 122.99,212.36 L 124.24,209.61 L 126.97,203.71 L 129.73,197.71 L 130.82,195.39 M 225.97,172.08 L 226.76,172.13 L 227.90,172.34 L 228.41,172.46 L 229.08,172.82 L 229.66,173.55 L 229.73,173.75 L 229.62,174.83 L 229.52,175.46 L 229.12,177.22 L 228.89,178.17 L 228.28,180.37 L 227.96,181.50 L 227.22,183.89 L 226.85,185.09 L 226.06,187.42 L 225.67,188.55 L 224.92,190.57 L 224.55,191.51 L 223.91,192.97 L 223.15,194.25 L 223.09,194.31 L 222.90,194.22 L 222.79,194.14 L 222.52,193.80 L 222.22,193.39 L 221.44,191.91 L 221.02,191.08 L 220.06,188.90 L 219.56,187.74 L 218.52,185.06 L 217.95,183.54 L 217.05,181.00 L 216.64,179.81 L 216.07,177.88 L 215.83,176.99 L 215.64,175.58 L 215.59,174.93 L 215.80,173.97 L 215.95,173.53 L 216.58,172.92 L 216.95,172.66 L 218.04,172.33 L 218.65,172.19 L 220.22,172.06 L 223.15,172.00 L 224.26,172.00 M 150.39,154.32 L 150.03,155.05 L 149.25,156.59 L 148.81,157.48 L 147.89,159.35 L 147.38,160.39 L 146.34,162.54 L 145.77,163.72 L 144.60,166.13 L 143.98,167.43 L 141.40,172.82 L 140.00,175.79 L 137.12,181.88 L 135.61,185.10 L 134.61,187.25 L 135.49,185.37 L 136.89,182.36 L 139.56,176.68 L 140.86,173.92 L 143.20,168.97 L 143.76,167.79 L 144.78,165.64 L 145.28,164.60 L 146.17,162.74 L 146.60,161.86 L 147.34,160.34 L 148.25,158.50 L 148.94,157.12 L 150.16,154.75 L 150.75,153.62 L 150.86,153.42 M 230.50,116.65 L 232.43,116.66 L 235.71,116.70 L 237.27,116.72 L 239.91,116.78 L 241.16,116.82 L 243.30,116.93 L 244.32,116.99 L 246.09,117.16 L 247.81,117.35 L 250.77,117.97 L 255.66,119.39 L 257.90,120.12 L 262.11,121.84 L 263.06,122.26 L 264.60,123.04 L 266.16,124.02 L 268.50,126.01 L 259.04,134.91 L 249.58,143.82 L 231.54,144.20 L 229.29,144.25 L 225.59,144.34 L 223.85,144.38 L 221.02,144.48 L 219.70,144.54 L 217.56,144.67 L 216.55,144.75 L 214.89,144.96 L 213.32,145.19 L 210.83,145.99 L 210.19,146.22 L 208.84,146.81 L 206.50,147.90 L 205.54,148.35 L 203.41,149.46 L 202.33,150.03 L 200.16,151.26 L 199.09,151.87 L 197.14,153.08 L 194.74,154.70 L 193.62,155.51 L 191.33,157.75 L 190.21,158.92 L 188.20,161.49 L 187.26,162.76 L 185.89,165.13 L 185.61,165.69 L 185.24,166.68 L 185.00,167.91 L 185.00,167.99 L 185.21,168.63 L 185.35,169.02 L 185.60,169.65 L 185.55,169.53 L 184.81,167.77 L 183.44,164.45 L 182.88,163.04 L 181.82,160.36 L 181.38,159.18 L 179.56,154.68 L 178.31,151.94 L 177.70,150.74 L 176.50,148.47 L 175.93,147.58 L 174.84,145.95 L 174.37,145.43 L 172.55,143.62 L 171.49,142.82 L 170.92,142.58 L 169.74,142.20 L 168.99,142.11 L 167.36,142.00 L 166.26,142.00 L 161.83,142.55 L 159.81,143.28 L 160.45,142.92 L 161.02,142.67 L 162.64,141.72 L 163.50,141.19 L 165.53,139.81 L 171.95,134.91 L 174.10,133.10 L 178.86,129.82 L 181.31,128.24 L 182.46,127.64 L 181.84,127.99 L 180.33,128.97 L 177.26,131.03 L 175.66,132.20 L 172.38,134.66 L 170.63,136.07 L 167.04,138.99 L 165.08,140.65 L 165.00,140.83 L 165.15,140.90 L 165.56,141.00 L 165.90,141.00 L 166.83,140.63 L 167.81,140.06 L 168.44,139.64 L 169.77,138.72 L 170.51,138.16 L 172.04,137.00 L 172.82,136.36 L 176.52,133.55 L 179.07,131.89 L 180.66,131.02 L 182.33,130.13 L 183.30,129.64 L 185.33,128.64 L 186.52,128.08 L 189.02,126.91 L 190.48,126.24 L 193.56,124.84 L 195.35,124.04 L 196.57,123.55 L 197.59,123.19 L 198.19,123.00 L 200.81,122.20 L 202.35,121.78 L 205.55,120.93 L 207.25,120.53 L 210.68,119.74 L 212.35,119.41 L 217.15,118.42 L 220.03,117.80 L 221.22,117.54 L 223.42,117.04 L 224.15,116.85 L 224.82,116.68 L 225.01,116.63 L 225.45,116.63 M 158.05,144.28 L 155.79,146.07 L 154.75,147.32 L 153.22,149.37 L 153.27,149.28 L 153.74,148.56 L 154.63,147.37 L 155.51,146.24 L 157.31,144.69 L 158.13,144.23 M 213.50,117.35 L 210.93,117.79 L 208.39,118.23 L 207.22,118.46 L 204.95,118.92 L 204.00,119.15 L 201.21,119.90 L 204.50,118.87 L 206.46,118.36 L 209.79,117.65 L 211.44,117.34 L 214.88,116.96 L 215.80,116.88 L 217.78,116.77 M 88.40,292.52 L 88.48,292.93 L 88.40,292.52 Z" fill="rgba(41,132,222,1)"/>
<path d="M 237.78,11.24 L 240.10,11.29 L 244.38,11.48 L 250.06,11.91 L 253.44,12.27 L 260.23,13.26 L 263.63,13.81 L 270.44,15.19 L 273.84,15.92 L 280.64,17.65 L 284.04,18.56 L 290.80,20.65 L 294.18,21.73 L 300.87,24.14 L 304.21,25.39 L 310.82,28.12 L 314.11,29.53 L 320.59,32.56 L 323.82,34.11 L 330.16,37.43 L 333.31,39.13 L 339.47,42.72 L 342.53,44.55 L 348.50,48.40 L 351.45,50.36 L 357.18,54.46 L 360.02,56.53 L 365.50,60.86 L 368.20,63.05 L 373.40,67.58 L 375.95,69.88 L 380.84,74.61 L 383.24,77.01 L 387.78,81.93 L 394.18,89.50 L 396.64,92.58 L 401.35,99.08 L 403.67,102.37 L 408.09,109.22 L 410.26,112.67 L 414.33,119.77 L 416.31,123.34 L 419.99,130.58 L 421.77,134.21 L 425.01,141.51 L 426.56,145.16 L 429.30,152.40 L 430.61,156.01 L 432.81,163.12 L 435.45,173.50 L 435.92,175.70 L 436.91,180.18 L 437.15,181.22 L 437.56,183.01 L 438.03,185.00 L 438.23,185.80 L 438.59,187.70 L 438.77,188.69 L 439.09,190.96 L 439.24,192.13 L 439.52,194.70 L 439.66,196.02 L 439.89,198.85 L 440.12,201.73 L 440.44,208.05 L 440.57,211.26 L 440.71,217.92 L 440.76,221.25 L 440.71,227.83 L 440.66,231.07 L 440.41,237.16 L 440.34,238.62 L 440.16,241.40 L 440.06,242.75 L 439.83,245.25 L 439.70,246.47 L 439.42,248.65 L 438.94,251.50 L 438.79,252.19 L 438.46,253.95 L 438.29,254.88 L 437.93,256.94 L 436.97,263.00 L 436.71,264.73 L 436.07,268.14 L 435.71,269.87 L 434.77,273.59 L 434.26,275.53 L 432.91,280.00 L 432.54,281.18 L 431.70,283.76 L 430.30,288.00 L 429.71,289.75 L 428.70,292.62 L 428.20,294.01 L 427.16,296.67 L 426.61,298.04 L 425.27,301.18 L 424.91,302.02 L 424.07,303.92 L 422.63,307.15 L 422.18,308.16 L 421.48,310.05 L 421.33,310.48 L 421.13,311.19 L 421.00,311.90 L 421.00,312.20 L 420.39,313.29 L 418.92,315.08 L 418.35,315.65 L 417.62,316.98 L 417.48,317.30 L 417.36,317.89 L 417.41,318.63 L 417.59,319.10 L 417.53,319.54 L 416.82,319.39 L 416.44,319.15 L 416.11,319.26 L 416.28,320.29 L 416.48,320.80 L 416.42,321.36 L 415.68,321.43 L 415.47,321.35 L 414.99,321.48 L 414.74,321.58 L 414.21,322.02 L 413.67,322.52 L 412.64,324.11 L 412.15,324.95 L 411.49,326.77 L 411.37,327.21 L 411.25,328.02 L 411.31,329.07 L 411.47,329.68 L 411.40,330.32 L 410.74,330.34 L 410.40,330.13 L 410.11,330.28 L 410.30,331.34 L 410.50,331.87 L 410.41,332.57 L 409.54,333.00 L 409.30,333.00 L 408.74,333.25 L 408.45,333.41 L 407.83,333.92 L 407.20,334.49 L 405.98,336.08 L 405.41,336.91 L 404.61,338.57 L 404.46,338.96 L 404.31,339.66 L 404.36,340.48 L 404.52,340.92 L 404.41,341.39 L 403.61,341.40 L 403.22,341.26 L 402.35,341.51 L 401.90,341.72 L 401.03,342.53 L 400.61,342.99 L 399.93,344.17 L 399.29,346.16 L 399.20,346.80 L 399.37,347.44 L 400.15,347.41 L 400.52,347.18 L 400.81,347.19 L 400.57,347.89 L 400.30,348.33 L 399.69,348.58 L 398.51,348.01 L 398.26,347.80 L 397.82,347.63 L 397.61,347.59 L 397.21,347.77 L 397.01,347.91 L 396.60,348.49 L 395.92,349.83 L 395.56,350.63 L 394.18,352.43 L 391.82,354.62 L 391.04,355.13 L 389.83,356.14 L 389.58,356.37 L 389.23,356.75 L 389.00,357.16 L 389.00,357.33 L 388.71,357.93 L 388.52,358.26 L 387.93,359.09 L 387.28,359.96 L 385.52,361.95 L 384.62,362.91 L 382.98,364.42 L 382.62,364.73 L 382.05,365.10 L 381.54,365.20 L 381.34,365.01 L 381.14,365.15 L 381.17,366.00 L 381.26,366.41 L 381.05,366.99 L 380.29,367.26 L 379.93,367.19 L 379.58,367.52 L 379.65,368.54 L 379.77,368.85 L 380.01,369.25 L 380.14,369.41 L 380.44,369.52 L 380.60,369.54 L 381.02,369.36 L 381.87,368.79 L 382.15,368.57 L 382.50,368.35 L 382.63,368.28 L 382.67,368.36 L 382.65,368.43 L 382.38,368.81 L 381.63,369.73 L 381.12,370.33 L 380.13,371.23 L 379.90,371.41 L 379.52,371.64 L 379.13,371.75 L 378.85,371.67 L 377.82,372.02 L 377.25,372.26 L 375.80,373.14 L 375.04,373.63 L 373.40,374.88 L 370.96,377.04 L 370.13,377.85 L 368.59,379.13 L 368.25,379.40 L 367.69,379.77 L 367.15,380.00 L 366.94,380.00 L 366.04,380.52 L 364.44,381.76 L 364.17,382.00 L 363.33,382.72 L 362.87,383.10 L 361.75,384.02 L 358.00,386.99 L 356.73,387.98 L 354.76,389.63 L 353.87,390.41 L 352.66,391.68 L 352.14,392.27 L 351.63,393.19 L 351.64,394.23 L 351.77,394.43 L 351.54,394.59 L 350.65,394.42 L 350.25,394.27 L 349.41,394.39 L 348.45,395.09 L 348.23,395.44 L 348.18,395.79 L 348.68,395.70 L 348.95,395.53 L 349.38,395.69 L 349.67,396.53 L 349.67,397.04 L 349.38,397.39 L 348.45,396.95 L 348.10,396.66 L 346.85,396.60 L 346.18,396.64 L 344.70,397.08 L 343.98,397.34 L 342.81,398.09 L 342.56,398.28 L 342.22,398.70 L 342.00,399.33 L 342.00,399.60 L 341.81,399.85 L 341.36,399.69 L 341.27,399.60 L 340.84,399.67 L 340.59,399.75 L 339.91,400.11 L 337.32,402.02 L 336.39,402.84 L 334.50,404.13 L 334.06,404.40 L 333.30,404.77 L 332.47,405.00 L 332.06,405.00 L 331.43,405.31 L 331.00,406.06 L 331.00,406.35 L 330.71,406.63 L 330.00,406.50 L 329.72,406.33 L 329.29,406.35 L 329.00,406.87 L 329.00,407.13 L 328.37,407.72 L 327.99,408.01 L 326.88,408.56 L 326.31,408.80 L 325.12,409.12 L 323.68,409.17 L 323.45,409.11 L 323.24,409.25 L 323.34,409.74 L 323.40,409.84 L 323.16,410.20 L 322.98,410.39 L 322.31,410.87 L 321.94,411.13 L 320.94,411.68 L 319.17,412.51 L 318.53,412.78 L 316.94,413.51 L 316.10,413.89 L 314.28,414.74 L 309.03,417.32 L 308.27,417.71 L 306.50,418.49 L 305.59,418.87 L 303.69,419.59 L 302.74,419.93 L 300.94,420.49 L 298.58,421.08 L 297.22,421.34 L 294.51,422.25 L 293.88,422.50 L 292.81,423.01 L 291.65,423.76 L 291.10,424.24 L 290.45,424.62 L 290.34,424.67 L 290.26,424.60 L 290.38,424.26 L 290.62,423.84 L 290.54,423.48 L 289.55,423.62 L 289.13,423.78 L 288.46,424.33 L 288.00,425.21 L 288.00,425.49 L 287.57,425.75 L 286.53,425.65 L 286.33,425.57 L 285.53,425.58 L 285.07,425.61 L 283.88,425.81 L 279.57,426.97 L 278.06,427.49 L 274.73,428.47 L 273.93,428.69 L 272.50,429.04 L 270.79,429.40 L 270.34,429.47 L 269.09,429.69 L 268.43,429.80 L 266.90,430.08 L 262.15,430.96 L 261.25,431.13 L 258.70,431.44 L 257.31,431.58 L 253.93,431.83 L 252.15,431.95 L 248.16,432.14 L 246.10,432.22 L 241.70,432.34 L 237.25,432.45 L 228.03,432.44 L 225.77,432.42 L 221.44,432.31 L 219.33,432.25 L 215.45,432.06 L 213.79,431.96 L 210.69,431.74 L 209.20,431.62 L 206.64,431.38 L 205.45,431.26 L 203.72,431.03 L 203.36,430.98 L 202.83,430.87 L 202.38,430.73 L 202.24,430.65 L 201.51,430.44 L 201.09,430.34 L 199.92,430.12 L 195.43,429.54 L 191.69,429.19 L 184.63,428.28 L 182.94,428.04 L 179.79,427.53 L 178.26,427.28 L 175.53,426.76 L 174.23,426.50 L 172.02,425.98 L 170.99,425.73 L 169.40,425.24 L 168.70,425.00 L 167.85,424.56 L 167.51,423.98 L 167.57,423.89 L 167.47,423.70 L 167.38,423.60 L 167.02,423.38 L 166.60,423.17 L 165.10,422.70 L 164.25,422.47 L 162.04,422.02 L 158.14,421.41 L 157.49,421.33 L 155.99,420.77 L 154.14,419.63 L 153.82,419.34 L 153.25,418.96 L 152.97,418.81 L 152.42,418.69 L 152.14,418.66 L 151.54,418.78 L 150.50,419.25 L 150.04,419.50 L 149.44,419.80 L 149.20,419.92 L 149.03,419.89 L 148.99,419.84 L 149.21,419.45 L 149.97,418.43 L 150.37,417.90 L 150.74,417.29 L 150.80,417.18 L 150.78,417.11 L 150.55,417.25 L 150.42,417.36 L 150.01,417.42 L 149.79,417.43 L 149.22,417.32 L 147.26,416.44 L 146.79,416.13 L 146.02,415.72 L 145.66,415.55 L 145.06,415.43 L 144.77,415.40 L 144.23,415.55 L 143.41,416.07 L 143.12,416.32 L 142.71,416.61 L 142.54,416.73 L 142.35,416.76 L 142.28,416.75 L 142.29,416.53 L 142.49,415.89 L 142.57,415.68 L 142.46,415.21 L 142.37,414.98 L 141.97,414.50 L 141.52,414.03 L 140.03,413.18 L 139.24,412.80 L 137.53,412.35 L 135.33,412.43 L 134.99,412.56 L 134.56,412.68 L 134.38,412.72 L 134.26,412.64 L 134.23,412.58 L 134.40,412.27 L 134.98,411.52 L 135.24,411.21 L 135.55,410.75 L 135.67,410.55 L 135.70,410.29 L 135.67,410.18 L 135.39,410.06 L 134.62,410.00 L 134.18,410.00 L 133.48,409.69 L 133.00,408.94 L 133.00,408.65 L 132.74,408.35 L 132.11,408.43 L 131.87,408.58 L 131.12,408.38 L 129.99,407.49 L 129.65,407.08 L 128.69,406.44 L 127.28,406.00 L 127.08,406.00 L 126.48,405.83 L 126.15,405.73 L 125.37,405.38 L 122.85,403.89 L 122.03,403.31 L 120.59,402.57 L 120.27,402.43 L 119.78,402.29 L 119.32,402.34 L 119.17,402.50 L 118.48,402.30 L 117.25,401.39 L 116.84,400.98 L 115.78,400.48 L 114.37,400.41 L 113.99,400.56 L 113.40,400.50 L 113.00,399.97 L 113.00,399.70 L 112.69,399.28 L 111.96,399.00 L 111.67,399.00 L 110.59,398.41 L 108.77,397.00 L 108.18,396.45 L 106.88,395.59 L 105.35,395.00 L 105.00,395.00 L 104.13,394.41 L 103.00,393.00 L 102.71,392.45 L 101.82,391.59 L 100.49,391.00 L 100.09,391.00 L 98.99,390.27 L 97.41,388.50 L 96.96,387.81 L 95.85,386.73 L 95.58,386.51 L 95.07,386.20 L 94.41,386.00 L 94.22,386.00 L 93.75,385.80 L 93.50,385.68 L 92.96,385.27 L 91.41,383.50 L 90.96,382.81 L 89.92,381.73 L 89.67,381.51 L 89.20,381.20 L 88.63,381.00 L 88.47,381.00 L 87.70,380.49 L 87.26,380.17 L 86.04,379.15 L 85.40,378.59 L 83.92,377.23 L 83.16,376.52 L 81.59,374.99 L 80.81,374.21 L 79.32,372.69 L 78.60,371.94 L 77.37,370.59 L 76.81,369.95 L 76.01,368.95 L 75.50,368.03 L 75.50,367.91 L 75.17,367.42 L 74.95,367.13 L 74.25,366.36 L 71.26,363.49 L 70.68,362.98 L 69.65,361.99 L 69.17,361.50 L 68.41,360.63 L 68.08,360.22 L 67.66,359.57 L 67.53,358.96 L 67.60,358.84 L 67.54,358.51 L 67.49,358.33 L 67.22,357.91 L 65.77,356.55 L 65.14,356.11 L 64.16,355.21 L 63.47,354.23 L 63.47,354.13 L 63.21,353.68 L 63.05,353.42 L 62.52,352.71 L 60.27,350.08 L 59.40,349.14 L 58.18,347.42 L 57.94,347.03 L 57.66,346.42 L 57.61,345.82 L 57.75,345.59 L 57.52,345.06 L 56.57,344.39 L 56.14,344.22 L 55.61,343.73 L 55.50,343.00 L 55.63,342.78 L 55.39,342.27 L 54.43,341.61 L 54.00,341.45 L 53.50,340.91 L 53.46,340.07 L 53.62,339.81 L 53.35,339.10 L 52.27,338.09 L 51.78,337.81 L 51.23,337.35 L 51.20,337.03 L 51.30,337.03 L 51.28,336.81 L 51.24,336.67 L 50.98,336.24 L 49.47,334.37 L 48.80,333.65 L 47.91,332.26 L 47.74,331.95 L 47.56,331.42 L 47.58,330.87 L 47.73,330.63 L 47.63,330.26 L 47.00,330.00 L 46.69,330.00 L 46.39,329.71 L 46.50,329.00 L 46.67,328.72 L 46.66,328.29 L 46.18,328.00 L 46.05,328.00 L 45.53,327.45 L 45.23,327.09 L 44.44,325.94 L 44.02,325.31 L 43.07,323.72 L 41.57,321.00 L 41.06,320.04 L 40.19,318.28 L 39.78,317.45 L 39.16,316.06 L 38.88,315.42 L 38.56,314.55 L 38.52,314.00 L 38.69,314.00 L 38.50,313.54 L 37.57,312.43 L 36.87,311.73 L 36.07,309.87 L 35.88,306.75 L 35.91,306.54 L 35.65,306.22 L 34.94,306.00 L 34.65,306.00 L 34.37,305.71 L 34.50,305.00 L 34.67,304.72 L 34.59,304.29 L 33.95,304.00 L 33.63,304.00 L 33.30,303.56 L 33.36,302.50 L 33.52,302.09 L 33.51,301.44 L 33.07,301.00 L 32.94,301.00 L 32.52,300.42 L 32.29,300.05 L 31.71,298.86 L 31.40,298.21 L 30.72,296.59 L 30.38,295.75 L 29.67,293.88 L 28.96,291.99 L 27.75,288.21 L 27.48,287.33 L 27.08,285.79 L 26.75,284.00 L 26.68,283.31 L 26.34,282.07 L 25.72,280.92 L 25.62,280.85 L 25.40,280.45 L 25.30,280.22 L 25.11,279.59 L 24.72,277.18 L 24.66,276.30 L 24.39,274.94 L 24.31,274.65 L 24.15,274.25 L 23.89,274.00 L 23.79,274.00 L 23.47,273.31 L 23.29,272.87 L 22.88,271.49 L 22.67,270.73 L 22.22,268.90 L 21.99,267.94 L 21.55,265.90 L 21.34,264.88 L 20.96,262.88 L 20.78,261.91 L 20.52,260.19 L 20.40,259.39 L 20.30,258.20 L 20.39,257.27 L 20.55,257.11 L 20.54,256.54 L 20.07,255.59 L 19.96,255.46 L 19.75,254.94 L 19.64,254.65 L 19.43,253.84 L 19.21,252.95 L 18.82,250.40 L 18.62,249.01 L 18.27,245.63 L 18.10,243.86 L 17.81,239.88 L 17.68,237.84 L 17.46,233.49 L 17.37,231.30 L 17.25,226.82 L 17.20,224.58 L 17.19,220.20 L 17.31,214.00 L 17.39,211.77 L 17.60,207.63 L 17.72,205.61 L 18.02,201.78 L 18.34,198.02 L 19.32,190.92 L 19.88,187.36 L 21.45,179.97 L 21.88,178.06 L 22.89,174.01 L 24.62,167.50 L 26.11,162.06 L 29.67,151.49 L 31.54,146.25 L 35.83,136.11 L 38.07,131.10 L 43.08,121.42 L 45.68,116.64 L 51.39,107.46 L 54.33,102.94 L 60.72,94.28 L 64.00,90.02 L 71.05,81.92 L 74.66,77.94 L 82.35,70.43 L 94.58,59.85 L 98.24,56.93 L 105.93,51.41 L 109.83,48.70 L 117.95,43.60 L 122.06,41.11 L 130.52,36.49 L 134.79,34.24 L 143.50,30.12 L 147.89,28.13 L 156.77,24.57 L 161.23,22.86 L 170.20,19.88 L 174.69,18.47 L 183.65,16.12 L 197.00,13.34 L 198.55,13.07 L 202.28,12.61 L 204.23,12.39 L 208.60,12.02 L 210.85,11.85 L 215.65,11.58 L 218.08,11.46 L 223.08,11.30 L 225.58,11.23 L 230.56,11.18 L 233.03,11.17 M 327.71,409.58 L 328.62,410.20 L 328.82,410.52 L 328.81,410.81 L 328.24,410.65 L 327.95,410.47 L 327.37,410.54 L 326.77,411.19 L 326.63,411.62 L 326.30,411.86 L 326.13,411.87 L 325.69,411.31 L 325.50,411.00 L 325.64,410.37 L 326.47,409.65 L 326.88,409.49 M 216.84,39.35 L 211.44,39.64 L 200.95,40.83 L 198.36,41.18 L 193.32,42.04 L 190.83,42.49 L 186.00,43.55 L 183.61,44.11 L 179.04,45.38 L 172.50,47.52 L 170.46,48.26 L 166.09,49.96 L 163.89,50.83 L 159.36,52.70 L 157.09,53.66 L 152.60,55.62 L 150.38,56.60 L 146.15,58.54 L 144.08,59.51 L 140.31,61.34 L 138.50,62.23 L 135.41,63.85 L 133.96,64.63 L 131.75,65.94 L 131.27,66.25 L 130.49,66.78 L 129.67,67.46 L 129.51,67.62 L 128.66,68.27 L 128.17,68.64 L 126.79,69.62 L 126.05,70.14 L 124.31,71.32 L 121.50,73.20 L 119.07,74.79 L 113.99,78.71 L 111.42,80.77 L 106.15,85.52 L 103.51,87.98 L 98.22,93.38 L 95.59,96.14 L 90.41,102.03 L 87.85,105.01 L 82.95,111.20 L 80.54,114.32 L 76.05,120.65 L 73.87,123.81 L 69.93,130.11 L 64.83,139.32 L 63.10,142.76 L 59.79,150.23 L 58.18,154.02 L 55.26,161.74 L 53.88,165.58 L 51.58,172.93 L 51.05,174.72 L 50.16,178.12 L 49.07,182.88 L 48.31,186.68 L 47.14,194.29 L 46.61,198.10 L 45.90,205.72 L 45.61,209.53 L 45.36,217.13 L 45.29,220.93 L 45.49,228.50 L 45.64,232.28 L 46.29,239.79 L 46.67,243.54 L 47.75,250.98 L 48.35,254.69 L 49.87,262.03 L 50.68,265.68 L 52.63,272.91 L 53.66,276.50 L 56.03,283.59 L 57.27,287.11 L 60.05,294.04 L 61.50,297.49 L 64.70,304.24 L 66.34,307.59 L 69.95,314.14 L 71.80,317.39 L 75.80,323.72 L 77.85,326.86 L 82.24,332.95 L 84.49,335.97 L 89.27,341.80 L 96.87,350.24 L 100.91,354.44 L 109.36,362.20 L 113.64,365.96 L 122.55,372.81 L 127.07,376.13 L 136.41,382.06 L 141.14,384.91 L 150.88,389.91 L 155.80,392.30 L 165.91,396.35 L 171.01,398.26 L 181.45,401.34 L 186.71,402.76 L 197.44,404.87 L 213.85,406.90 L 215.75,407.04 L 218.90,407.28 L 220.39,407.39 L 222.88,407.56 L 224.06,407.63 L 226.11,407.73 L 227.09,407.76 L 228.91,407.79 L 230.72,407.79 L 234.58,407.59 L 235.64,407.53 L 238.09,407.34 L 239.39,407.24 L 242.50,406.99 L 245.75,406.72 L 252.06,406.00 L 255.18,405.61 L 261.26,404.62 L 264.28,404.10 L 270.17,402.85 L 273.09,402.19 L 278.82,400.65 L 281.66,399.85 L 287.26,398.03 L 290.05,397.08 L 295.55,394.97 L 298.29,393.87 L 303.73,391.45 L 311.85,387.45 L 314.28,386.19 L 318.70,383.78 L 320.85,382.59 L 324.82,380.27 L 326.75,379.10 L 330.39,376.77 L 332.18,375.59 L 335.62,373.15 L 337.32,371.91 L 340.69,369.27 L 342.37,367.92 L 345.79,364.99 L 347.52,363.48 L 351.13,360.17 L 356.88,354.67 L 359.00,352.59 L 362.92,348.58 L 364.83,346.59 L 368.37,342.68 L 370.10,340.73 L 373.31,336.85 L 374.89,334.91 L 377.83,330.98 L 379.28,329.00 L 382.01,324.95 L 383.36,322.90 L 385.94,318.64 L 387.21,316.47 L 389.69,311.93 L 393.36,304.72 L 395.55,300.24 L 399.39,291.10 L 401.21,286.51 L 404.33,277.20 L 405.80,272.53 L 408.18,263.11 L 409.28,258.39 L 410.93,248.91 L 411.66,244.17 L 412.56,234.68 L 412.92,229.95 L 413.06,220.52 L 413.04,215.81 L 412.42,206.50 L 410.62,192.70 L 410.41,191.50 L 410.07,189.18 L 409.92,188.06 L 409.70,186.08 L 409.62,185.15 L 409.55,183.73 L 409.65,182.47 L 409.81,182.06 L 409.71,181.43 L 409.06,181.00 L 408.75,181.00 L 408.31,180.63 L 408.11,179.75 L 408.17,179.41 L 408.07,178.43 L 407.68,177.00 L 407.63,176.89 L 407.45,176.41 L 407.35,176.14 L 407.08,175.39 L 406.79,174.58 L 405.99,172.28 L 405.57,171.05 L 404.59,168.18 L 404.08,166.70 L 403.03,163.58 L 402.50,162.03 L 401.49,159.01 L 401.00,157.55 L 400.14,154.97 L 399.75,153.77 L 399.17,151.96 L 399.04,151.58 L 398.87,151.01 L 398.72,150.50 L 398.66,150.22 L 398.39,149.65 L 397.92,149.00 L 397.88,148.97 L 397.68,148.66 L 397.56,148.48 L 397.22,147.90 L 396.85,147.25 L 395.77,145.27 L 395.18,144.18 L 393.76,141.50 L 391.42,137.00 L 390.60,135.42 L 389.06,132.51 L 388.31,131.12 L 387.01,128.78 L 386.41,127.71 L 385.50,126.20 L 385.30,125.89 L 385.00,125.46 L 384.73,125.16 L 384.62,125.11 L 384.31,124.80 L 384.14,124.61 L 383.74,124.06 L 382.44,121.89 L 382.24,121.49 L 381.35,120.12 L 380.84,119.37 L 379.48,117.47 L 378.75,116.48 L 377.10,114.30 L 374.47,110.96 L 373.58,109.86 L 371.95,107.83 L 371.18,106.86 L 369.90,105.24 L 369.31,104.49 L 368.51,103.44 L 368.35,103.23 L 368.13,102.93 L 368.00,102.72 L 368.00,102.69 L 367.80,102.43 L 367.66,102.27 L 367.22,101.77 L 366.73,101.22 L 365.16,99.58 L 364.31,98.69 L 362.25,96.57 L 361.18,95.48 L 358.89,93.17 L 357.74,92.01 L 355.50,89.79 L 354.42,88.71 L 352.51,86.85 L 351.63,86.00 L 350.33,84.78 L 350.06,84.53 L 349.68,84.20 L 349.39,84.00 L 349.29,84.00 L 348.67,83.60 L 348.29,83.34 L 347.23,82.54 L 346.66,82.09 L 345.31,81.02 L 344.62,80.46 L 343.16,79.24 L 342.44,78.63 L 341.03,77.43 L 340.35,76.83 L 339.16,75.77 L 338.60,75.26 L 337.79,74.47 L 337.17,73.75 L 337.07,73.54 L 336.52,73.22 L 335.42,73.00 L 335.03,73.00 L 334.42,72.71 L 334.00,72.00 L 334.00,71.72 L 333.56,71.29 L 332.50,71.00 L 332.09,71.00 L 331.44,70.71 L 331.00,70.00 L 331.00,69.72 L 330.69,69.29 L 329.93,69.00 L 329.78,69.00 L 329.16,68.75 L 328.80,68.59 L 327.84,68.08 L 324.32,65.88 L 323.86,65.56 L 322.31,64.65 L 321.45,64.15 L 319.22,62.95 L 318.03,62.31 L 315.29,60.89 L 313.87,60.17 L 310.79,58.63 L 307.67,57.07 L 301.18,53.98 L 299.60,53.23 L 296.59,51.86 L 292.50,50.05 L 290.51,49.20 L 286.27,47.64 L 284.12,46.89 L 279.58,45.53 L 277.27,44.87 L 272.48,43.71 L 270.05,43.15 L 265.04,42.19 L 259.98,41.27 L 249.39,40.03 L 244.05,39.52 L 233.16,39.08 L 227.70,38.97 M 324.83,348.23 L 323.97,349.19 L 323.48,349.69 L 322.23,350.86 L 321.57,351.46 L 320.01,352.77 L 318.40,354.10 L 314.60,356.91 L 308.70,360.81 L 308.26,361.07 L 307.18,361.67 L 306.61,361.98 L 305.29,362.66 L 303.91,363.36 L 300.58,364.93 L 298.84,365.74 L 294.98,367.46 L 293.01,368.32 L 288.89,370.07 L 286.82,370.93 L 282.69,372.60 L 280.66,373.41 L 276.80,374.88 L 274.93,375.58 L 271.60,376.75 L 267.50,378.04 L 265.32,378.65 L 260.55,379.69 L 258.11,380.19 L 252.94,381.02 L 250.31,381.40 L 244.86,382.00 L 242.12,382.27 L 236.54,382.64 L 233.75,382.79 L 228.17,382.91 L 225.40,382.94 L 219.96,382.82 L 217.28,382.72 L 212.13,382.34 L 209.60,382.11 L 204.87,381.46 L 202.79,381.14 L 199.19,380.53 L 197.46,380.23 L 194.34,379.59 L 192.82,379.26 L 189.89,378.48 L 188.43,378.06 L 185.40,377.04 L 183.84,376.48 L 180.40,375.11 L 178.61,374.37 L 174.47,372.53 L 173.38,372.04 L 171.01,370.95 L 169.79,370.39 L 167.15,369.15 L 165.79,368.52 L 162.83,367.11 L 161.95,366.69 L 167.26,369.18 L 170.37,370.52 L 172.27,371.23 L 173.79,371.70 L 174.61,371.92 L 177.97,372.71 L 179.39,372.90 L 183.41,373.63 L 184.51,373.90 L 184.92,374.03 L 185.64,374.28 L 185.82,374.39 L 187.26,375.03 L 188.68,375.52 L 189.56,375.78 L 191.43,376.32 L 192.48,376.59 L 194.64,377.12 L 195.77,377.38 L 200.37,378.37 L 202.47,378.73 L 204.51,379.06 L 205.40,379.17 L 207.07,379.36 L 207.71,379.38 L 211.61,379.75 L 212.62,379.93 L 212.97,380.03 L 213.57,380.24 L 213.68,380.34 L 213.90,380.45 L 214.17,380.50 L 214.80,380.59 L 215.25,380.63 L 216.23,380.70 L 216.83,380.73 L 218.10,380.78 L 218.83,380.80 L 221.97,380.87 L 223.77,380.87 L 227.49,380.86 L 229.42,380.84 L 233.28,380.77 L 235.11,380.72 L 238.69,380.59 L 240.21,380.51 L 241.69,380.43 L 242.33,380.38 L 243.56,380.29 L 244.06,380.24 L 244.98,380.13 L 245.31,380.08 L 245.87,379.96 L 246.00,379.90 L 247.37,379.49 L 248.95,379.11 L 250.00,378.89 L 252.23,378.43 L 253.50,378.19 L 256.12,377.70 L 257.50,377.46 L 264.91,375.97 L 269.78,374.79 L 272.19,374.10 L 276.98,372.65 L 279.35,371.83 L 284.08,370.11 L 286.43,369.15 L 291.13,367.15 L 293.46,366.05 L 298.14,363.77 L 300.47,362.52 L 305.14,359.94 L 307.49,358.54 L 312.18,355.66 L 314.54,354.10 L 317.64,352.11 L 319.61,350.89 L 320.47,350.38 L 322.10,349.44 L 322.72,349.11 L 323.80,348.56 L 324.07,348.48 L 325.00,348.00 M 153.88,362.63 L 158.86,365.22 L 160.52,366.01 L 158.00,364.81 L 156.83,364.26 L 154.05,362.77 L 152.61,361.99 L 151.50,361.35 M 151.35,361.26 L 149.57,360.22 L 148.05,359.32 L 147.56,359.02 M 145.11,357.48 L 141.23,354.88 L 146.62,358.43 M 323.69,345.27 L 323.93,345.39 L 323.68,345.33 L 323.07,345.19 M 307.04,340.98 L 306.80,340.91 L 305.75,340.52 L 305.07,340.26 M 302.94,339.37 L 304.10,339.89 L 303.76,339.76 L 302.98,339.41 L 297.38,336.90 M 102.29,316.91 L 103.20,318.18 L 104.98,320.64 L 105.78,321.65 L 107.29,323.50 L 107.88,324.08 L 108.43,324.60 L 108.65,324.76 L 109.05,325.00 L 109.03,325.00 L 108.61,324.76 L 108.38,324.61 L 107.82,324.09 L 107.22,323.51 L 105.71,321.69 L 104.92,320.69 L 103.16,318.25 L 102.28,316.99 L 100.48,314.25 L 99.60,312.88 L 99.58,312.84 L 100.45,314.18 M 355.96,129.73 L 357.43,129.84 L 360.19,130.12 L 361.54,130.28 L 363.96,130.67 L 365.12,130.87 L 367.11,131.35 L 369.48,132.17 L 370.33,132.56 L 371.49,133.52 L 371.99,134.06 L 372.50,135.63 L 372.60,136.08 L 372.68,137.17 L 372.70,137.75 L 372.65,139.13 L 372.60,139.87 L 372.43,141.59 L 372.05,144.63 L 371.76,146.67 L 371.53,151.39 L 371.46,153.76 L 371.61,158.15 L 371.67,159.17 L 371.84,160.92 L 371.94,161.73 L 372.18,162.95 L 372.31,163.47 L 372.62,164.00 L 373.13,163.82 L 373.29,163.57 L 373.53,163.28 L 373.64,163.17 L 373.79,163.16 L 373.86,163.19 L 373.94,163.48 L 373.98,164.25 L 373.99,164.78 L 373.82,165.45 L 373.70,165.72 L 373.24,165.88 L 372.97,165.90 L 372.17,165.54 L 370.51,164.44 L 370.24,164.23 L 369.23,163.69 L 368.66,163.41 L 367.20,162.78 L 362.01,160.91 L 360.66,160.49 L 358.16,159.89 L 356.89,159.63 L 354.09,159.31 L 353.34,159.24 L 351.67,159.15 L 350.81,159.11 L 348.85,159.06 L 347.83,159.05 L 345.50,159.05 L 341.50,159.08 L 339.57,159.11 L 335.97,159.23 L 334.24,159.30 L 331.28,159.48 L 330.59,159.53 L 329.39,159.64 L 328.83,159.70 L 327.90,159.81 L 327.48,159.87 L 326.87,159.99 L 326.36,160.17 L 326.04,160.42 L 325.30,160.73 L 324.36,160.82 L 324.12,160.75 L 323.16,160.97 L 321.50,161.68 L 320.95,161.99 L 319.27,162.37 L 316.71,162.48 L 315.78,162.37 L 313.97,162.84 L 311.34,164.57 L 310.62,165.22 L 309.25,166.10 L 308.94,166.27 L 308.42,166.44 L 307.87,166.42 L 307.63,166.27 L 307.26,166.37 L 307.00,167.00 L 307.00,167.31 L 306.71,167.61 L 306.01,167.51 L 305.74,167.34 L 305.45,167.46 L 305.48,168.20 L 305.54,168.38 L 305.25,169.00 L 305.04,169.34 L 304.25,170.20 L 303.81,170.65 L 302.64,171.66 L 300.52,173.25 L 299.26,174.13 L 296.71,176.34 L 295.43,177.52 L 292.90,180.26 L 291.64,181.68 L 289.20,184.82 L 288.00,186.43 L 285.73,189.86 L 284.62,191.60 L 282.59,195.19 L 281.62,196.99 L 279.92,200.63 L 279.11,202.45 L 277.80,206.01 L 276.37,211.15 L 276.01,212.84 L 275.55,216.44 L 275.36,218.27 L 275.23,222.10 L 275.21,224.04 L 275.39,228.00 L 275.52,229.99 L 276.01,234.00 L 276.29,236.00 L 277.06,239.95 L 277.49,241.91 L 278.54,245.71 L 279.10,247.59 L 280.42,251.15 L 282.67,256.13 L 283.75,258.21 L 286.62,262.65 L 288.13,264.88 L 291.54,269.23 L 293.27,271.35 L 296.80,275.09 L 297.67,275.96 L 299.36,277.50 L 301.76,279.44 L 303.91,280.99 L 308.42,283.72 L 310.71,285.01 L 315.48,287.22 L 317.90,288.25 L 322.87,289.92 L 325.37,290.68 L 330.50,291.80 L 333.07,292.29 L 338.29,292.86 L 340.91,293.07 L 346.17,293.08 L 348.80,293.01 L 354.05,292.43 L 361.87,290.91 L 363.00,290.63 L 365.18,290.15 L 366.24,289.93 L 368.11,289.60 L 368.99,289.47 L 370.34,289.33 L 371.56,289.38 L 371.85,289.49 L 372.27,290.24 L 372.37,290.48 L 372.52,291.16 L 372.60,291.53 L 372.71,292.49 L 372.77,293.02 L 372.85,294.32 L 372.89,295.01 L 372.94,296.69 L 372.96,297.58 L 372.99,299.67 L 373.00,303.35 L 373.00,305.18 L 372.98,308.19 L 372.97,309.60 L 372.89,311.87 L 372.84,312.92 L 372.66,314.55 L 372.55,315.31 L 372.22,316.43 L 372.03,316.95 L 371.50,317.69 L 371.20,318.02 L 370.43,318.50 L 370.01,318.72 L 368.95,319.05 L 367.00,319.51 L 366.59,319.60 L 365.54,319.76 L 364.98,319.84 L 363.67,319.97 L 362.30,320.10 L 358.91,320.30 L 357.13,320.38 L 353.16,320.49 L 351.12,320.53 L 346.86,320.54 L 344.71,320.53 L 340.45,320.45 L 338.34,320.40 L 334.38,320.23 L 332.46,320.14 L 329.08,319.88 L 327.49,319.74 L 325.00,319.39 L 323.83,319.20 L 321.54,318.78 L 320.42,318.56 L 318.41,318.14 L 317.46,317.93 L 315.95,317.55 L 314.50,317.09 L 314.22,316.97 L 313.45,316.65 L 313.03,316.49 L 312.06,316.11 L 309.00,315.00 L 307.78,314.58 L 304.68,313.29 L 303.10,312.60 L 299.85,311.06 L 298.28,310.29 L 295.63,308.86 L 295.05,308.52 L 294.12,307.94 L 293.18,307.25 L 292.82,306.91 L 291.83,306.37 L 290.43,306.00 L 290.04,306.00 L 289.42,305.71 L 289.00,305.00 L 289.00,304.72 L 288.69,304.29 L 287.96,304.00 L 287.67,304.00 L 286.95,303.73 L 286.56,303.55 L 285.60,302.89 L 285.08,302.51 L 283.82,301.42 L 281.54,299.25 L 280.92,298.63 L 279.65,297.66 L 279.36,297.46 L 278.85,297.18 L 278.29,297.00 L 278.02,297.00 L 277.07,296.41 L 275.50,295.00 L 275.00,294.45 L 274.49,293.59 L 274.41,293.41 L 274.39,293.16 L 274.59,293.00 L 274.72,293.00 L 274.60,292.68 L 274.49,292.48 L 273.95,291.82 L 273.63,291.46 L 272.75,290.55 L 271.12,289.00 L 270.52,288.45 L 269.49,287.45 L 269.00,286.97 L 268.26,286.17 L 267.94,285.81 L 267.57,285.32 L 267.53,285.00 L 267.63,285.00 L 267.66,284.85 L 267.65,284.76 L 267.45,284.46 L 266.17,283.15 L 265.58,282.64 L 264.81,281.70 L 264.66,281.48 L 264.51,281.14 L 264.53,280.81 L 264.60,280.74 L 264.52,280.40 L 264.45,280.20 L 264.14,279.66 L 262.51,277.61 L 261.82,276.86 L 260.74,275.39 L 260.51,275.05 L 260.20,274.47 L 260.00,273.85 L 260.00,273.71 L 259.85,273.24 L 259.76,272.98 L 259.45,272.34 L 258.13,270.15 L 257.35,269.04 L 255.69,266.09 L 254.88,264.55 L 253.39,261.28 L 252.69,259.68 L 251.67,256.79 L 251.46,256.12 L 251.18,254.99 L 251.00,253.65 L 251.00,252.92 L 250.69,251.78 L 249.94,251.00 L 249.65,251.00 L 249.37,250.71 L 249.50,250.00 L 249.67,249.72 L 249.71,248.93 L 249.34,247.75 L 249.12,247.41 L 248.73,246.57 L 248.37,245.50 L 247.82,242.53 L 247.02,236.95 L 246.68,234.22 L 246.28,229.02 L 246.14,226.46 L 246.16,221.53 L 246.22,219.09 L 246.68,214.33 L 246.96,211.97 L 247.86,207.26 L 248.36,204.91 L 249.72,200.16 L 250.45,197.76 L 252.28,192.85 L 255.55,185.19 L 256.47,183.20 L 258.48,179.35 L 259.51,177.46 L 261.74,173.81 L 262.88,172.01 L 265.31,168.56 L 266.56,166.86 L 269.21,163.62 L 270.55,162.02 L 273.40,158.98 L 274.85,157.49 L 277.90,154.66 L 279.44,153.27 L 282.68,150.66 L 284.32,149.38 L 287.74,146.98 L 289.48,145.81 L 293.08,143.64 L 294.90,142.58 L 298.68,140.63 L 300.59,139.68 L 304.54,137.96 L 306.54,137.13 L 310.65,135.64 L 312.73,134.92 L 317.01,133.67 L 319.16,133.07 L 323.59,132.06 L 325.83,131.58 L 330.40,130.80 L 337.43,129.92 L 340.39,129.63 L 346.71,129.46 L 349.86,129.43 M 168.99,142.11 L 169.74,142.20 L 170.92,142.58 L 171.49,142.82 L 172.55,143.62 L 174.37,145.43 L 174.84,145.95 L 175.93,147.58 L 176.50,148.47 L 177.70,150.74 L 178.31,151.94 L 179.56,154.68 L 181.38,159.18 L 181.82,160.36 L 182.88,163.04 L 183.44,164.45 L 184.81,167.77 L 185.55,169.53 L 187.32,173.69 L 187.80,174.80 L 188.84,177.21 L 189.38,178.44 L 190.55,181.14 L 191.16,182.52 L 192.48,185.53 L 193.16,187.07 L 194.64,190.42 L 195.40,192.14 L 197.04,195.85 L 197.89,197.75 L 199.72,201.86 L 200.66,203.96 L 202.68,208.49 L 203.72,210.81 L 205.94,215.78 L 207.08,218.32 L 209.52,223.77 L 213.44,232.50 L 214.49,234.84 L 216.66,239.68 L 217.74,242.09 L 219.78,246.67 L 220.27,247.77 L 221.19,249.84 L 221.63,250.84 L 222.44,252.66 L 222.82,253.53 L 223.49,255.03 L 224.29,256.86 L 224.51,257.36 L 225.11,258.70 L 225.44,259.42 L 226.23,261.13 L 226.64,262.02 L 227.58,264.04 L 228.07,265.07 L 229.13,267.32 L 230.21,269.61 L 232.60,274.60 L 236.25,282.15 L 237.45,284.61 L 239.65,289.22 L 240.17,290.33 L 241.13,292.40 L 241.60,293.41 L 242.43,295.24 L 242.83,296.12 L 243.50,297.65 L 243.82,298.37 L 244.31,299.56 L 244.53,300.10 L 244.82,300.88 L 245.00,301.54 L 245.00,301.84 L 244.44,302.28 L 244.24,302.37 L 243.62,302.53 L 243.27,302.60 L 242.33,302.71 L 241.81,302.76 L 240.47,302.83 L 239.75,302.87 L 237.98,302.90 L 237.04,302.92 L 234.77,302.93 L 230.75,302.92 L 228.79,302.91 L 225.10,302.84 L 223.32,302.81 L 220.25,302.70 L 219.53,302.67 L 218.28,302.60 L 217.69,302.57 L 216.71,302.49 L 216.26,302.46 L 215.59,302.38 L 215.30,302.34 L 215.00,302.26 L 214.57,302.10 L 213.56,301.28 L 213.05,300.82 L 212.10,299.67 L 211.65,299.10 L 211.03,297.99 L 210.76,296.75 L 210.82,296.54 L 210.62,296.22 L 209.94,296.00 L 209.65,296.00 L 209.37,295.71 L 209.50,295.00 L 209.67,294.72 L 209.61,294.29 L 209.00,294.00 L 208.69,294.00 L 208.39,293.71 L 208.50,293.00 L 208.67,292.72 L 208.61,292.29 L 208.00,292.00 L 207.69,292.00 L 207.38,291.73 L 207.45,291.08 L 207.61,290.83 L 207.39,289.97 L 206.44,288.58 L 206.00,288.15 L 205.51,287.46 L 205.50,287.00 L 205.68,287.00 L 205.49,286.54 L 204.56,285.42 L 204.13,284.98 L 203.61,284.03 L 203.55,282.92 L 203.71,282.67 L 203.62,282.27 L 203.00,282.00 L 202.69,282.00 L 202.39,281.71 L 202.50,281.00 L 202.67,280.72 L 202.61,280.29 L 202.00,280.00 L 201.69,280.00 L 201.39,279.71 L 201.50,279.00 L 201.67,278.72 L 201.33,278.29 L 200.06,278.00 L 199.49,278.00 L 198.60,277.71 L 198.00,277.00 L 198.00,276.91 L 197.76,276.76 L 197.60,276.69 L 197.08,276.55 L 196.50,276.43 L 194.65,276.24 L 193.64,276.15 L 191.19,276.05 L 189.92,276.01 L 187.19,276.00 L 185.81,276.00 L 183.12,276.07 L 181.80,276.12 L 179.46,276.27 L 178.37,276.36 L 176.71,276.60 L 176.36,276.67 L 175.83,276.81 L 175.35,277.05 L 175.24,277.16 L 174.74,277.35 L 174.45,277.45 L 173.62,277.62 L 173.16,277.70 L 172.04,277.85 L 171.45,277.92 L 170.08,278.04 L 168.67,278.16 L 165.32,278.32 L 163.60,278.39 L 159.91,278.45 L 158.07,278.47 L 154.44,278.42 L 152.66,278.39 L 149.47,278.23 L 147.96,278.14 L 145.59,277.88 L 145.06,277.81 L 144.24,277.64 L 143.38,277.35 L 142.99,277.15 L 141.90,276.82 L 141.31,276.66 L 139.90,276.42 L 138.43,276.20 L 135.04,276.04 L 133.35,276.01 L 130.24,276.24 L 129.52,276.32 L 128.31,276.56 L 126.93,277.04 L 126.40,277.32 L 125.57,278.40 L 125.00,280.22 L 125.00,280.52 L 124.83,281.38 L 124.73,281.85 L 124.38,282.96 L 124.00,284.11 L 122.90,286.71 L 122.32,287.99 L 121.12,290.21 L 120.83,290.70 L 120.31,291.46 L 119.63,292.18 L 119.49,292.27 L 119.11,292.70 L 118.91,292.95 L 118.45,293.63 L 117.05,296.18 L 115.47,299.50 L 107.99,299.20 L 105.93,299.12 L 101.75,299.28 L 100.78,299.34 L 99.12,299.52 L 97.28,299.88 L 96.72,300.04 L 95.85,300.24 L 95.46,300.32 L 94.89,300.35 L 94.64,300.35 L 94.37,300.21 L 94.28,299.80 L 94.34,299.51 L 94.03,298.91 L 93.11,298.25 L 92.64,298.08 L 92.26,298.19 L 92.52,299.02 L 92.78,299.45 L 92.81,299.80 L 92.14,299.59 L 91.82,299.39 L 91.48,298.80 L 91.55,297.92 L 91.71,297.67 L 91.52,297.09 L 90.62,296.41 L 90.21,296.25 L 89.38,295.15 L 88.48,292.93 L 88.40,292.52 L 88.48,291.29 L 88.57,290.60 L 89.04,288.73 L 89.33,287.70 L 90.21,285.12 L 90.71,283.73 L 92.04,280.36 L 92.76,278.57 L 94.56,274.33 L 95.04,273.22 L 96.10,270.81 L 96.64,269.57 L 97.83,266.92 L 98.44,265.57 L 99.75,262.66 L 100.43,261.18 L 101.89,258.02 L 102.63,256.40 L 104.23,252.97 L 106.78,247.50 L 107.33,246.33 L 108.53,243.77 L 109.14,242.46 L 110.44,239.68 L 111.75,236.86 L 114.49,230.94 L 115.85,228.00 L 118.44,222.36 L 119.06,221.00 L 120.23,218.46 L 121.80,215.00 L 124.74,208.53 L 131.00,194.99 L 132.56,191.64 L 135.61,185.10 L 137.12,181.88 L 140.00,175.79 L 141.40,172.82 L 143.98,167.43 L 144.60,166.13 L 145.77,163.72 L 146.34,162.54 L 147.38,160.39 L 147.89,159.35 L 148.81,157.48 L 149.25,156.59 L 150.03,155.05 L 150.39,154.32 L 151.01,153.14 L 151.73,151.79 L 152.71,150.05 L 154.75,147.32 L 155.79,146.07 L 158.05,144.28 L 159.22,143.49 L 161.83,142.55 L 166.26,142.00 L 167.36,142.00 M 98.47,301.69 L 98.94,301.76 L 99.81,301.82 L 98.73,301.87 L 97.73,301.95 L 95.90,302.10 L 95.30,302.17 L 94.76,302.25 L 94.59,302.29 L 94.42,302.33 L 94.44,302.10 L 94.52,301.96 L 94.94,301.77 L 95.19,301.68 L 95.87,301.58 M 118.12,297.45 L 118.29,297.62 L 118.27,298.51 L 117.80,299.35 L 117.38,299.77 L 116.11,300.50 L 114.80,300.88 L 113.85,301.02 L 113.42,301.08 L 114.15,300.97 L 115.49,300.62 L 116.07,300.42 L 116.76,299.92 L 117.31,298.92 L 117.41,298.53 L 117.68,297.92 L 117.83,297.66 L 118.18,297.32 L 118.20,297.31 M 120.05,297.50 L 120.11,297.55 L 120.01,297.48 M 387.06,238.50 L 386.90,240.66 L 386.39,244.32 L 385.22,250.00 L 384.89,251.41 L 384.19,253.96 L 383.84,255.18 L 383.14,257.22 L 382.80,258.16 L 382.16,259.55 L 381.31,260.75 L 381.19,260.84 L 380.67,261.00 L 380.37,261.08 L 379.52,261.23 L 378.60,261.37 L 375.98,261.61 L 374.58,261.72 L 371.30,261.87 L 369.62,261.94 L 366.07,262.02 L 364.30,262.05 L 360.89,262.03 L 359.23,262.02 L 356.35,261.91 L 355.68,261.88 L 354.52,261.79 L 353.96,261.75 L 353.07,261.64 L 352.66,261.58 L 352.08,261.44 L 351.83,261.37 L 351.63,261.21 L 351.56,261.10 L 351.58,260.83 L 351.70,260.81 L 352.24,260.61 L 352.68,260.41 L 353.32,260.23 L 354.00,260.10 L 354.45,260.03 L 356.53,259.77 L 357.91,259.65 L 360.87,259.40 L 362.56,259.30 L 366.07,259.10 L 367.92,259.03 L 381.33,258.50 L 383.09,255.36 L 384.28,252.64 L 384.99,250.41 L 385.31,249.09 L 385.92,246.34 L 386.19,244.79 L 386.68,241.59 L 386.89,239.83 L 387.11,237.68 M 356.73,260.18 L 356.25,260.31 L 355.88,260.43 L 355.85,260.49 L 355.88,260.59 L 356.04,260.63 L 356.45,260.71 L 356.78,260.73 L 357.52,260.77 L 358.00,260.77 L 359.22,260.73 L 359.80,260.68 L 359.96,260.63 L 360.18,260.54 L 360.15,260.49 L 359.99,260.37 L 359.75,260.31 L 358.00,260.12 M 352.93,256.53 L 352.87,256.66 L 353.13,255.96 L 353.25,255.70 M 163.33,195.66 L 162.49,196.71 L 162.38,196.87 L 162.00,197.56 L 161.79,197.96 L 161.23,199.08 L 160.93,199.69 L 160.21,201.20 L 159.83,202.00 L 158.98,203.83 L 158.54,204.79 L 157.58,206.90 L 157.08,207.98 L 156.03,210.31 L 154.97,212.69 L 152.68,217.87 L 151.52,220.50 L 149.20,225.85 L 148.05,228.50 L 145.89,233.59 L 144.84,236.06 L 143.03,240.44 L 142.60,241.47 L 141.86,243.33 L 140.91,245.75 L 140.05,248.00 L 187.95,248.00 L 187.04,245.60 L 186.79,244.94 L 186.57,243.73 L 186.73,242.60 L 186.90,242.44 L 186.81,242.18 L 186.17,242.00 L 185.85,242.00 L 185.42,241.77 L 185.25,241.23 L 185.29,241.10 L 185.20,240.52 L 185.13,240.18 L 184.84,239.28 L 184.51,238.32 L 183.47,235.91 L 182.92,234.70 L 181.75,232.44 L 181.47,231.92 L 180.94,231.07 L 180.27,230.18 L 179.92,229.82 L 179.34,228.97 L 178.88,227.93 L 178.75,227.00 L 178.40,225.74 L 178.29,225.42 L 177.96,224.71 L 177.25,223.38 L 176.93,222.80 L 176.60,221.70 L 176.70,220.63 L 176.88,220.46 L 176.76,220.19 L 176.00,220.00 L 175.63,220.00 L 175.24,219.82 L 175.29,219.37 L 175.38,219.29 L 175.41,218.88 L 175.40,218.65 L 175.25,218.01 L 174.25,215.62 L 173.80,214.76 L 173.14,213.20 L 173.01,212.85 L 172.85,212.29 L 172.79,211.75 L 172.85,211.54 L 172.60,211.22 L 171.83,211.00 L 171.51,211.00 L 171.20,210.81 L 171.32,210.35 L 171.41,210.26 L 171.40,209.81 L 171.36,209.55 L 171.13,208.83 L 169.75,206.10 L 169.14,205.11 L 168.32,203.56 L 168.16,203.23 L 168.00,202.78 L 168.01,202.50 L 168.08,202.50 L 168.02,202.19 L 167.96,201.99 L 167.68,201.36 L 167.51,201.00 L 167.05,200.12 L 166.19,198.60 L 165.64,197.66 L 164.87,196.45 L 164.53,195.95 L 164.02,195.53 L 163.78,195.40 M 357.69,241.53 L 357.59,241.89 L 357.77,241.19 M 358.85,236.45 L 358.71,237.08 L 358.94,235.96 M 360.69,218.45 L 360.69,218.71 L 360.67,218.20 M 359.03,203.39 L 360.00,209.35 L 360.28,212.38 L 360.41,214.33 L 360.10,210.96 L 359.77,208.12 L 358.82,202.57 L 358.78,202.35 M 378.09,166.48 L 378.57,167.72 L 378.82,168.39 L 379.39,170.06 L 379.69,170.96 L 380.35,173.09 L 380.69,174.22 L 381.46,176.85 L 381.86,178.23 L 382.74,181.37 L 384.20,186.71 L 384.59,188.14 L 385.23,190.57 L 385.53,191.74 L 386.01,193.80 L 386.46,195.81 L 386.97,199.74 L 387.07,200.80 L 387.21,203.17 L 387.27,204.30 L 387.22,203.61 L 387.12,202.50 L 386.92,200.36 L 386.79,199.35 L 386.21,195.46 L 385.77,193.44 L 385.32,191.39 L 385.04,190.28 L 384.47,187.99 L 384.13,186.71 L 383.02,182.55 L 382.32,180.00 L 382.00,178.83 L 381.37,176.58 L 381.07,175.56 L 380.49,173.59 L 380.22,172.71 L 379.70,171.03 L 379.46,170.29 L 378.98,168.87 L 378.76,168.26 L 377.94,166.16 M 355.41,188.68 L 355.59,189.59 L 356.45,193.42 L 357.00,195.16 L 357.10,195.54 L 356.99,195.16 L 356.44,193.42 L 355.59,189.59 L 355.40,188.68 L 355.16,187.05 L 355.00,185.11 L 355.16,187.05 M 375.29,164.76 L 375.09,165.43 L 374.70,166.90 L 374.97,165.67 L 375.12,165.08 L 375.42,164.41 L 375.59,164.15 L 375.72,164.12 M 377.30,164.92 L 377.47,165.19 L 377.88,166.02 L 377.88,166.03 L 377.55,165.40 L 377.18,164.77 M 121.31,298.74 L 123.50,301.75 L 120.98,298.41 Z" fill="rgba(31,43,49,1)"/>
<path d="M 94.85,304.12 L 95.90,304.43 L 96.66,304.59 L 98.94,305.24 L 100.28,305.85 L 100.85,306.23 L 101.95,307.06 L 102.40,307.55 L 103.25,308.60 L 103.59,309.20 L 104.65,310.29 L 105.48,310.30 L 106.01,309.95 L 106.75,309.42 L 107.00,309.13 L 107.00,308.99 L 106.91,308.72 L 106.75,308.57 L 106.33,308.23 L 106.00,308.02 L 105.38,307.56 L 105.15,307.33 L 105.14,307.25 L 105.33,307.02 L 105.81,307.02 L 106.57,306.74 L 106.72,306.36 L 106.57,306.11 L 106.70,305.28 L 107.51,304.86 L 108.27,304.71 L 110.02,304.47 L 111.24,304.41 L 113.91,304.34 L 115.58,304.38 L 117.49,304.43 L 118.54,304.48 L 118.97,304.53 L 120.49,304.78 L 121.05,305.07 L 122.09,305.79 L 122.61,306.42 L 123.14,307.10 L 123.44,307.53 L 124.06,308.45 L 124.43,309.00 L 127.95,313.64 L 130.78,316.87 L 132.40,318.52 L 135.76,321.84 L 137.61,323.51 L 141.40,326.84 L 143.43,328.48 L 147.54,331.73 L 149.69,333.30 L 154.02,336.39 L 156.23,337.84 L 160.66,340.67 L 162.89,341.96 L 167.32,344.45 L 169.50,345.53 L 180.64,350.56 L 187.99,353.31 L 191.74,354.43 L 199.33,356.50 L 203.35,357.32 L 207.40,358.10 L 209.51,358.44 L 213.77,359.09 L 216.00,359.38 L 216.56,359.43 L 216.96,359.46 L 217.82,359.50 L 218.35,359.52 L 220.69,359.57 L 222.14,359.58 L 225.20,359.58 L 226.87,359.55 L 230.28,359.49 L 232.00,359.44 L 242.83,358.68 L 249.90,357.76 L 253.38,357.08 L 260.31,355.58 L 263.75,354.61 L 270.59,352.53 L 274.00,351.26 L 283.76,347.06 L 286.93,345.48 L 288.42,344.69 L 291.29,343.12 L 292.55,342.37 L 294.93,340.92 L 295.87,340.28 L 297.56,339.05 L 298.09,338.57 L 298.55,338.11 L 298.69,337.91 L 298.90,337.58 L 302.98,339.41 L 303.76,339.76 L 305.75,340.52 L 306.80,340.91 L 309.13,341.68 L 310.32,342.06 L 312.71,342.75 L 316.05,343.59 L 317.07,343.82 L 319.04,344.26 L 319.99,344.48 L 321.68,344.87 L 322.47,345.05 L 323.68,345.33 L 324.75,345.60 L 325.22,345.72 L 325.75,346.17 L 325.94,346.41 L 325.94,346.97 L 325.87,347.26 L 325.36,347.81 L 324.07,348.48 L 323.80,348.56 L 322.72,349.11 L 322.10,349.44 L 320.47,350.38 L 319.61,350.89 L 317.64,352.11 L 314.54,354.10 L 312.18,355.66 L 307.49,358.54 L 305.14,359.94 L 300.47,362.52 L 298.14,363.77 L 293.46,366.05 L 291.13,367.15 L 286.43,369.15 L 284.08,370.11 L 279.35,371.83 L 276.98,372.65 L 272.19,374.10 L 269.78,374.79 L 264.91,375.97 L 257.50,377.46 L 256.12,377.70 L 253.50,378.19 L 252.23,378.43 L 250.00,378.89 L 248.95,379.11 L 247.37,379.49 L 246.00,379.90 L 245.87,379.96 L 245.31,380.08 L 244.98,380.13 L 244.06,380.24 L 243.56,380.29 L 242.33,380.38 L 241.69,380.43 L 240.21,380.51 L 238.69,380.59 L 235.11,380.72 L 233.28,380.77 L 229.42,380.84 L 227.49,380.86 L 223.77,380.87 L 221.97,380.87 L 218.83,380.80 L 218.10,380.78 L 216.83,380.73 L 216.23,380.70 L 215.25,380.63 L 214.80,380.59 L 214.17,380.50 L 213.90,380.45 L 213.68,380.34 L 213.57,380.24 L 212.97,380.03 L 212.62,379.93 L 211.61,379.75 L 207.71,379.38 L 207.07,379.36 L 205.40,379.17 L 204.51,379.06 L 202.47,378.73 L 200.37,378.37 L 195.77,377.38 L 194.64,377.12 L 192.48,376.59 L 191.43,376.32 L 189.56,375.78 L 188.68,375.52 L 187.26,375.03 L 185.82,374.39 L 185.64,374.28 L 184.92,374.03 L 184.51,373.90 L 183.41,373.63 L 179.39,372.90 L 177.97,372.71 L 174.61,371.92 L 173.79,371.70 L 172.27,371.23 L 170.37,370.52 L 167.26,369.18 L 161.61,366.53 L 158.86,365.22 L 153.88,362.63 L 151.47,361.33 L 147.12,358.75 L 141.23,354.88 L 140.09,354.07 L 137.97,352.60 L 136.95,351.89 L 135.22,350.73 L 134.42,350.19 L 133.27,349.46 L 132.41,349.00 L 132.34,349.00 L 132.00,348.76 L 131.81,348.61 L 131.29,348.12 L 129.35,346.00 L 128.65,345.18 L 127.33,343.88 L 127.02,343.61 L 126.52,343.24 L 126.01,343.00 L 125.88,343.00 L 125.16,342.49 L 124.74,342.16 L 123.55,341.13 L 122.92,340.57 L 121.45,339.20 L 120.70,338.49 L 119.13,336.95 L 118.35,336.18 L 116.85,334.66 L 116.13,333.92 L 114.89,332.58 L 114.32,331.96 L 113.52,331.00 L 113.00,330.16 L 113.00,329.96 L 112.43,329.24 L 111.05,328.04 L 110.52,327.65 L 109.83,326.81 L 109.61,325.82 L 109.75,325.59 L 109.69,325.24 L 109.18,325.00 L 109.05,325.00 L 108.65,324.76 L 108.43,324.60 L 107.88,324.08 L 107.29,323.50 L 105.78,321.65 L 104.98,320.64 L 103.20,318.18 L 102.29,316.91 L 100.45,314.18 L 99.55,312.80 L 97.87,310.11 L 97.07,308.80 L 95.77,306.47 L 95.18,305.38 L 94.59,304.02 M 256.63,353.06 L 256.19,353.15 L 256.64,353.06 M 258.91,352.53 L 257.19,352.93 L 258.92,352.53 M 285.33,342.60 L 277.65,346.05 L 272.78,348.06 L 270.42,348.92 L 265.76,350.56 L 263.47,351.24 L 260.02,352.22 L 263.50,351.23 L 265.80,350.54 L 270.47,348.90 L 272.83,348.03 L 277.73,346.02 L 285.42,342.55 M 297.78,337.08 L 297.65,337.11 L 297.15,337.30 L 296.79,337.44 L 295.11,338.14 L 293.96,338.64 L 291.46,339.75 L 290.00,340.42 L 286.99,341.81 L 297.38,336.90 M 101.59,301.75 L 99.50,301.91 L 98.62,302.01 L 96.97,302.22 L 96.32,302.34 L 95.14,302.60 L 94.74,302.74 L 94.23,302.96 L 94.21,302.86 L 94.27,302.39 L 94.31,302.36 L 94.59,302.29 L 94.76,302.25 L 95.30,302.17 L 95.90,302.10 L 97.73,301.95 L 98.73,301.87 L 101.19,301.74 L 105.03,301.60 M 106.07,301.57 L 106.18,301.56 L 106.18,301.56 M 378.76,168.26 L 378.98,168.87 L 379.46,170.29 L 379.70,171.03 L 380.22,172.71 L 380.49,173.59 L 381.07,175.56 L 381.37,176.58 L 382.00,178.83 L 382.32,180.00 L 383.02,182.55 L 384.13,186.71 L 384.47,187.99 L 385.04,190.28 L 385.32,191.39 L 385.77,193.44 L 386.21,195.46 L 386.79,199.35 L 386.92,200.36 L 387.12,202.50 L 387.22,203.61 L 387.38,206.05 L 387.45,207.32 L 387.58,210.20 L 387.75,215.16 L 387.89,219.72 L 387.72,228.28 L 387.65,230.36 L 387.40,234.30 L 387.26,236.23 L 386.89,239.83 L 386.68,241.59 L 386.19,244.79 L 385.92,246.34 L 385.31,249.09 L 384.99,250.41 L 384.28,252.64 L 383.09,255.36 L 381.33,258.50 L 367.92,259.03 L 366.07,259.10 L 362.56,259.30 L 360.87,259.40 L 357.91,259.65 L 356.53,259.77 L 354.45,260.03 L 354.00,260.10 L 353.32,260.23 L 352.68,260.41 L 352.24,260.61 L 351.70,260.81 L 351.48,260.85 L 351.35,260.60 L 351.35,260.40 L 351.64,259.54 L 351.84,259.02 L 352.24,258.12 L 352.22,258.17 L 352.21,258.45 L 352.29,258.90 L 352.47,258.94 L 352.91,258.90 L 353.24,258.70 L 353.98,258.16 L 354.44,257.70 L 355.97,255.68 L 356.97,253.87 L 357.46,252.76 L 358.42,250.40 L 358.89,249.03 L 359.80,246.18 L 360.22,244.60 L 361.06,241.33 L 361.44,239.56 L 362.19,235.93 L 362.52,234.01 L 363.16,230.09 L 363.43,228.04 L 363.94,223.90 L 364.14,221.76 L 364.46,218.61 L 364.66,216.75 L 364.77,215.93 L 364.98,214.38 L 365.08,213.71 L 365.30,212.43 L 365.41,211.89 L 365.87,209.97 L 366.12,209.34 L 366.65,208.28 L 366.96,208.00 L 367.86,207.05 L 368.63,206.14 L 369.06,205.58 L 370.91,203.14 L 371.78,201.87 L 373.15,199.96 L 374.00,198.90 L 374.40,198.47 L 375.17,197.68 L 375.53,197.39 L 376.23,196.87 L 376.56,196.71 L 377.19,196.46 L 377.49,196.44 L 378.07,196.45 L 378.35,196.55 L 379.40,197.22 L 379.87,197.93 L 380.74,199.08 L 381.26,199.63 L 381.50,199.79 L 381.95,200.05 L 382.15,200.07 L 382.52,200.04 L 382.68,199.92 L 382.97,199.61 L 383.07,199.36 L 383.26,198.77 L 383.32,198.38 L 383.41,197.53 L 383.42,197.01 L 383.40,195.90 L 383.34,195.25 L 383.10,193.10 L 382.85,191.43 L 382.69,190.52 L 381.99,186.70 L 381.56,184.75 L 380.68,180.92 L 380.24,179.30 L 379.81,177.75 L 379.60,177.11 L 379.20,175.92 L 379.03,175.50 L 377.97,172.79 L 377.54,171.40 L 377.46,170.87 L 377.39,169.90 L 377.47,169.52 L 377.72,168.83 L 377.97,168.54 L 378.36,167.23 M 359.75,260.31 L 359.99,260.37 L 360.15,260.49 L 360.18,260.54 L 359.96,260.63 L 359.80,260.68 L 359.22,260.73 L 358.00,260.77 L 357.52,260.77 L 356.78,260.73 L 356.45,260.71 L 356.04,260.63 L 355.88,260.59 L 355.85,260.49 L 355.88,260.43 L 356.25,260.31 L 356.73,260.18 L 358.00,260.12 M 85.17,229.86 L 83.04,234.36 L 79.39,241.98 L 75.28,250.50 L 79.39,241.96 L 81.46,237.65 L 82.75,234.95 L 83.35,233.70 L 85.24,229.69 M 358.37,238.57 L 358.36,238.61 L 358.37,238.54 M 360.04,230.00 L 359.71,232.00 L 359.28,234.08 L 360.12,229.45 M 360.49,215.07 L 360.65,216.90 L 360.70,217.73 L 360.84,220.87 L 360.81,222.32 L 360.67,225.19 L 360.49,226.74 L 360.31,228.05 L 360.52,225.53 L 360.61,224.18 L 360.67,221.33 L 360.69,218.45 L 360.40,214.22 M 231.93,87.10 L 239.88,87.41 L 243.81,87.84 L 251.64,88.90 L 255.49,89.71 L 263.16,91.51 L 266.91,92.69 L 274.37,95.24 L 278.00,96.80 L 283.56,99.29 L 286.94,100.91 L 288.47,101.70 L 291.39,103.26 L 292.69,104.02 L 295.15,105.53 L 296.21,106.26 L 297.55,106.71 L 298.88,106.76 L 299.81,106.65 L 298.78,106.81 L 296.67,107.00 L 296.27,107.00 L 295.24,106.83 L 294.68,106.72 L 293.33,106.33 L 292.61,106.11 L 290.93,105.50 L 290.05,105.17 L 288.06,104.34 L 287.03,103.90 L 284.73,102.86 L 283.54,102.31 L 280.94,101.05 L 279.60,100.39 L 276.69,98.92 L 272.00,96.48 L 269.71,95.27 L 265.01,93.50 L 263.78,93.11 L 261.10,92.46 L 259.71,92.15 L 256.61,91.67 L 254.99,91.45 L 251.32,91.11 L 249.41,90.96 L 245.03,90.75 L 242.73,90.66 L 237.49,90.56 L 236.12,90.54 L 233.19,90.51 L 228.50,90.50 L 226.74,90.50 L 223.52,90.50 L 221.96,90.51 L 219.11,90.53 L 217.73,90.54 L 215.20,90.58 L 213.98,90.60 L 211.73,90.67 L 209.55,90.75 L 205.81,91.03 L 204.02,91.20 L 200.81,91.72 L 199.24,92.01 L 196.19,92.83 L 194.65,93.28 L 191.39,94.46 L 189.70,95.11 L 185.88,96.72 L 184.87,97.16 L 182.69,98.12 L 179.11,99.71 L 177.09,100.61 L 173.71,102.13 L 172.12,102.85 L 169.48,104.08 L 168.23,104.66 L 166.12,105.70 L 165.12,106.20 L 163.38,107.16 L 161.69,108.11 L 158.62,110.19 L 157.82,110.76 L 156.06,112.08 L 153.00,114.43 L 151.09,115.90 L 147.58,118.72 L 145.87,120.12 L 142.70,122.82 L 141.16,124.16 L 138.29,126.81 L 136.89,128.13 L 134.26,130.78 L 131.67,133.44 L 126.97,139.01 L 120.17,148.23 L 119.61,149.04 L 118.40,151.04 L 117.77,152.10 L 116.44,154.56 L 115.76,155.84 L 114.34,158.69 L 113.62,160.16 L 112.13,163.36 L 111.37,165.00 L 109.84,168.49 L 109.07,170.27 L 107.52,174.00 L 102.92,185.84 L 102.27,187.58 L 101.08,190.81 L 100.49,192.39 L 99.39,195.34 L 98.32,198.21 L 96.41,203.25 L 95.48,205.67 L 93.77,210.01 L 93.16,211.55 L 93.29,211.19 L 93.52,210.43 L 93.92,209.02 L 94.02,208.48 L 94.15,207.49 L 94.13,207.12 L 94.19,205.85 L 94.35,204.76 L 94.48,204.11 L 94.77,202.73 L 94.97,201.95 L 95.39,200.32 L 95.65,199.42 L 96.78,195.61 L 97.49,193.46 L 99.00,189.01 L 99.86,186.63 L 103.55,176.83 L 105.58,172.01 L 107.62,167.26 L 108.64,165.04 L 110.66,160.72 L 111.64,158.82 L 117.18,148.90 L 121.06,142.88 L 123.18,140.05 L 127.56,134.49 L 130.02,131.78 L 135.14,126.35 L 138.07,123.57 L 143.31,118.81 L 146.80,115.86 L 148.56,114.48 L 155.64,109.24 L 159.34,106.96 L 163.06,104.73 L 164.99,103.69 L 168.88,101.65 L 170.91,100.70 L 175.01,98.82 L 177.15,97.93 L 181.51,96.20 L 183.79,95.37 L 195.78,91.61 L 203.82,89.67 L 207.85,88.98 L 215.90,87.79 L 219.92,87.48 L 227.94,87.04 M 355.41,188.68 L 355.59,189.59 L 356.46,193.42 L 357.02,195.16 L 357.89,198.45 L 358.49,201.20 L 358.50,201.23 L 357.00,195.16 L 356.45,193.42 L 355.59,189.59 L 355.41,188.68 L 355.16,187.05 L 355.00,185.11 L 355.16,187.05 M 376.57,164.02 L 376.87,164.24 L 377.55,165.40 L 377.57,165.43 L 377.56,165.42 L 376.47,164.21 L 375.91,163.97 L 375.71,164.15 L 375.76,164.06 L 376.01,163.82 M 308.49,104.92 L 308.17,104.99 L 308.90,104.82 M 326.90,100.76 L 326.19,100.93 L 327.02,100.72 M 328.46,100.06 L 327.99,100.34 L 327.71,100.48 L 327.29,100.63 L 327.80,100.43 L 328.05,100.30 L 328.48,100.03 M 316.63,90.23 L 317.18,90.60 L 316.61,90.22 M 291.63,76.24 L 295.42,78.05 L 297.39,79.02 L 301.65,81.30 L 303.81,82.49 L 308.20,85.04 L 310.39,86.33 L 314.59,88.94 L 316.36,90.06 L 314.56,88.92 L 310.35,86.31 L 308.16,85.02 L 303.77,82.47 L 301.61,81.29 L 297.35,79.00 L 295.39,78.04 L 291.62,76.23 M 374.68,166.96 L 374.50,168.03 L 374.68,166.96 Z" fill="rgba(161,127,69,1)"/>
<path d="M 119.28,297.00 L 119.87,297.38 L 120.19,297.62 L 120.96,298.40 L 123.50,301.75 L 124.60,303.50 L 127.44,307.24 L 128.94,309.14 L 132.46,313.07 L 134.29,315.05 L 138.36,319.05 L 140.44,321.05 L 144.90,324.99 L 147.16,326.94 L 151.87,330.70 L 154.25,332.55 L 159.06,336.00 L 161.47,337.67 L 166.25,340.69 L 173.21,344.60 L 174.99,345.50 L 178.79,347.16 L 180.72,347.97 L 184.81,349.43 L 186.89,350.13 L 191.23,351.38 L 193.43,351.98 L 197.98,353.01 L 200.28,353.49 L 205.00,354.30 L 207.37,354.67 L 212.21,355.23 L 227.00,356.00 L 229.80,356.00 L 235.08,355.84 L 237.67,355.72 L 242.60,355.32 L 245.03,355.08 L 249.72,354.40 L 252.05,354.03 L 256.63,353.06 L 258.91,352.53 L 263.47,351.24 L 265.76,350.56 L 270.42,348.92 L 272.78,348.06 L 277.65,346.05 L 285.33,342.60 L 286.96,341.83 L 290.00,340.42 L 291.46,339.75 L 293.96,338.64 L 295.11,338.14 L 296.79,337.44 L 297.15,337.30 L 297.65,337.11 L 298.08,337.00 L 298.38,337.00 L 298.73,337.11 L 298.86,337.18 L 298.92,337.42 L 298.91,337.56 L 298.69,337.91 L 298.55,338.11 L 298.09,338.57 L 297.56,339.05 L 295.87,340.28 L 294.93,340.92 L 292.55,342.37 L 291.29,343.12 L 288.42,344.69 L 286.93,345.48 L 283.76,347.06 L 274.00,351.26 L 270.59,352.53 L 263.75,354.61 L 260.31,355.58 L 253.38,357.08 L 249.90,357.76 L 242.83,358.68 L 232.00,359.44 L 230.28,359.49 L 226.87,359.55 L 225.20,359.58 L 222.14,359.58 L 220.69,359.57 L 218.35,359.52 L 217.82,359.50 L 216.96,359.46 L 216.56,359.43 L 216.00,359.38 L 213.77,359.09 L 209.51,358.44 L 207.40,358.10 L 203.35,357.32 L 199.33,356.50 L 191.74,354.43 L 187.99,353.31 L 180.64,350.56 L 169.50,345.53 L 167.32,344.45 L 162.89,341.96 L 160.66,340.67 L 156.23,337.84 L 154.02,336.39 L 149.69,333.30 L 147.54,331.73 L 143.43,328.48 L 141.40,326.84 L 137.61,323.51 L 135.76,321.84 L 132.40,318.52 L 130.78,316.87 L 127.95,313.64 L 124.43,309.00 L 124.06,308.45 L 123.44,307.53 L 123.14,307.10 L 122.61,306.42 L 122.09,305.79 L 121.05,305.07 L 120.49,304.78 L 118.97,304.53 L 118.54,304.48 L 117.49,304.43 L 115.58,304.38 L 113.91,304.34 L 111.24,304.41 L 110.02,304.47 L 108.27,304.71 L 107.51,304.86 L 106.70,305.28 L 106.57,306.11 L 106.72,306.36 L 106.57,306.74 L 105.81,307.02 L 105.33,307.02 L 105.14,307.25 L 105.15,307.33 L 105.38,307.56 L 106.00,308.02 L 106.33,308.23 L 106.75,308.57 L 106.91,308.72 L 107.00,308.99 L 107.00,309.13 L 106.75,309.42 L 106.01,309.95 L 105.48,310.30 L 104.65,310.29 L 103.59,309.20 L 103.25,308.60 L 102.40,307.55 L 101.95,307.06 L 100.85,306.23 L 100.28,305.85 L 98.94,305.24 L 96.66,304.59 L 95.90,304.43 L 94.85,304.12 L 94.41,303.96 L 93.96,303.64 L 93.81,303.48 L 93.94,303.18 L 94.08,303.03 L 94.74,302.74 L 95.14,302.60 L 96.32,302.34 L 96.97,302.22 L 98.62,302.01 L 99.50,301.91 L 101.59,301.75 L 105.19,301.59 L 106.18,301.56 L 107.94,301.50 L 108.79,301.46 L 110.28,301.37 L 111.70,301.28 L 113.83,301.02 L 114.79,300.88 L 116.11,300.50 L 117.38,299.77 L 117.80,299.35 L 118.27,298.51 L 118.29,297.62 L 118.12,297.45 L 118.26,297.18 L 119.08,297.00 M 376.47,164.21 L 377.56,165.42 L 378.04,166.07 L 378.38,167.16 L 377.97,168.54 L 377.72,168.83 L 377.47,169.52 L 377.39,169.90 L 377.46,170.87 L 377.54,171.40 L 377.97,172.79 L 379.03,175.50 L 379.20,175.92 L 379.60,177.11 L 379.81,177.75 L 380.24,179.30 L 380.68,180.92 L 381.56,184.75 L 381.99,186.70 L 382.69,190.52 L 382.85,191.43 L 383.10,193.10 L 383.34,195.25 L 383.40,195.90 L 383.42,197.01 L 383.41,197.53 L 383.32,198.38 L 383.26,198.77 L 383.07,199.36 L 382.97,199.61 L 382.68,199.92 L 382.52,200.04 L 382.15,200.07 L 381.95,200.05 L 381.50,199.79 L 381.26,199.63 L 380.74,199.08 L 379.87,197.93 L 379.40,197.22 L 378.35,196.55 L 378.07,196.45 L 377.49,196.44 L 377.19,196.46 L 376.56,196.71 L 376.23,196.87 L 375.53,197.39 L 375.17,197.68 L 374.40,198.47 L 374.00,198.90 L 373.15,199.96 L 371.78,201.87 L 370.91,203.14 L 369.06,205.58 L 368.63,206.14 L 367.86,207.05 L 366.96,208.00 L 366.65,208.28 L 366.12,209.34 L 365.87,209.97 L 365.41,211.89 L 365.30,212.43 L 365.08,213.71 L 364.98,214.38 L 364.77,215.93 L 364.66,216.75 L 364.46,218.61 L 364.14,221.76 L 363.94,223.90 L 363.43,228.04 L 363.16,230.09 L 362.52,234.01 L 362.19,235.93 L 361.44,239.56 L 361.06,241.33 L 360.22,244.60 L 359.80,246.18 L 358.89,249.03 L 358.42,250.40 L 357.46,252.76 L 356.97,253.87 L 355.97,255.68 L 354.44,257.70 L 353.98,258.16 L 353.24,258.70 L 352.91,258.90 L 352.47,258.94 L 352.29,258.90 L 352.21,258.45 L 352.22,258.17 L 352.56,257.25 L 352.88,256.51 L 353.56,254.80 L 353.89,253.91 L 354.58,251.95 L 355.26,249.95 L 356.59,245.47 L 357.23,243.20 L 358.37,238.57 L 359.71,232.00 L 360.04,230.00 L 360.49,226.74 L 360.67,225.19 L 360.81,222.32 L 360.84,220.87 L 360.70,217.73 L 360.65,216.90 L 360.49,215.07 L 360.18,212.00 L 359.86,209.11 L 358.78,202.72 L 358.49,201.20 L 357.89,198.45 L 357.02,195.16 L 356.46,193.42 L 355.59,189.59 L 355.41,188.68 L 355.16,187.05 L 355.00,185.11 L 355.00,184.18 L 355.12,182.92 L 355.24,182.35 L 355.94,181.50 L 356.18,181.30 L 356.84,180.89 L 357.20,180.69 L 358.16,180.25 L 358.69,180.02 L 360.01,179.49 L 362.47,178.54 L 363.53,178.14 L 365.39,177.36 L 366.28,176.98 L 367.81,176.23 L 368.54,175.85 L 369.78,175.10 L 370.36,174.72 L 371.34,173.93 L 372.26,173.12 L 373.44,171.30 L 374.50,168.03 L 374.69,166.91 L 375.07,165.40 L 375.26,164.77 L 375.68,164.17 L 375.91,163.97 M 235.43,64.12 L 239.01,64.29 L 242.49,64.49 L 244.02,64.62 L 246.91,64.90 L 248.03,65.07 L 253.58,65.73 L 255.17,65.83 L 255.79,65.84 L 256.91,65.84 L 257.22,65.79 L 257.48,65.69 L 257.47,65.65 L 257.76,65.71 L 259.47,66.12 L 263.16,67.06 L 265.03,67.55 L 268.91,68.63 L 272.81,69.73 L 280.40,72.13 L 282.22,72.73 L 285.58,73.90 L 290.02,75.59 L 291.62,76.23 L 295.39,78.04 L 297.35,79.00 L 301.61,81.29 L 303.77,82.47 L 308.16,85.02 L 310.35,86.31 L 314.56,88.92 L 316.61,90.21 L 320.29,92.68 L 321.16,93.27 L 322.76,94.40 L 323.52,94.95 L 324.87,95.97 L 325.51,96.46 L 326.57,97.34 L 327.06,97.77 L 327.79,98.49 L 328.11,98.82 L 328.47,99.36 L 328.55,99.91 L 328.48,100.03 L 328.05,100.30 L 327.80,100.43 L 327.07,100.71 L 324.26,101.41 L 324.00,101.46 L 323.28,101.60 L 322.88,101.68 L 321.91,101.88 L 320.89,102.09 L 318.29,102.66 L 316.92,102.96 L 313.89,103.65 L 309.21,104.74 L 308.09,105.01 L 306.13,105.46 L 305.20,105.67 L 303.59,106.01 L 302.82,106.17 L 301.52,106.40 L 300.90,106.51 L 299.86,106.65 L 298.88,106.76 L 297.55,106.71 L 296.21,106.26 L 295.15,105.53 L 292.69,104.02 L 291.39,103.26 L 288.47,101.70 L 286.94,100.91 L 283.56,99.29 L 278.00,96.80 L 274.37,95.24 L 266.91,92.69 L 263.16,91.51 L 255.49,89.71 L 251.64,88.90 L 243.81,87.84 L 239.88,87.41 L 231.93,87.10 L 227.94,87.04 L 219.92,87.48 L 215.90,87.79 L 207.85,88.98 L 203.82,89.67 L 195.78,91.61 L 183.79,95.37 L 181.51,96.20 L 177.15,97.93 L 175.01,98.82 L 170.91,100.70 L 168.88,101.65 L 164.99,103.69 L 163.06,104.73 L 159.34,106.96 L 155.64,109.24 L 148.56,114.48 L 146.80,115.86 L 143.31,118.81 L 138.07,123.57 L 135.14,126.35 L 130.02,131.78 L 127.56,134.49 L 123.18,140.05 L 121.06,142.88 L 117.18,148.90 L 111.64,158.82 L 110.66,160.72 L 108.64,165.04 L 107.62,167.26 L 105.58,172.01 L 103.55,176.83 L 99.86,186.63 L 99.00,189.01 L 97.49,193.46 L 96.78,195.61 L 95.65,199.42 L 95.39,200.32 L 94.97,201.95 L 94.77,202.73 L 94.48,204.11 L 94.35,204.76 L 94.19,205.85 L 94.13,207.12 L 94.15,207.49 L 94.02,208.48 L 93.92,209.02 L 93.52,210.43 L 93.29,211.19 L 92.59,213.11 L 92.20,214.14 L 91.16,216.64 L 90.59,217.98 L 89.18,221.17 L 88.42,222.85 L 86.59,226.81 L 85.63,228.89 L 83.35,233.70 L 82.75,234.95 L 81.46,237.65 L 79.39,241.96 L 75.28,250.50 L 73.63,246.62 L 73.30,245.84 L 72.71,243.69 L 72.42,242.53 L 71.92,239.73 L 71.67,238.26 L 71.27,234.98 L 71.08,233.29 L 70.79,229.69 L 70.54,226.04 L 70.41,218.49 L 70.42,216.63 L 70.54,213.06 L 70.90,208.09 L 71.25,204.74 L 72.27,198.10 L 72.82,194.80 L 74.25,188.25 L 75.02,184.98 L 76.87,178.50 L 77.85,175.27 L 80.12,168.85 L 81.31,165.65 L 84.00,159.30 L 85.41,156.13 L 88.53,149.83 L 90.14,146.69 L 93.70,140.43 L 99.51,131.10 L 101.20,128.54 L 105.13,123.36 L 107.18,120.76 L 111.76,115.59 L 114.11,113.01 L 119.21,107.94 L 121.81,105.43 L 127.30,100.57 L 129.44,98.73 L 129.75,98.61 L 130.54,98.28 L 131.08,98.00 L 132.25,97.39 L 132.92,97.01 L 135.82,95.30 L 137.28,94.35 L 138.71,93.40 L 139.35,92.94 L 140.58,92.03 L 141.06,91.63 L 143.64,89.66 L 145.64,88.27 L 146.74,87.55 L 151.41,84.67 L 153.92,83.30 L 158.97,80.63 L 161.35,79.53 L 163.70,78.48 L 164.78,78.04 L 166.89,77.22 L 167.82,76.92 L 170.71,75.87 L 171.52,75.54 L 171.82,75.39 L 172.36,75.11 L 172.50,75.01 L 173.76,74.26 L 174.84,73.76 L 175.51,73.50 L 176.93,72.98 L 177.77,72.71 L 179.56,72.18 L 180.61,71.90 L 182.80,71.33 L 184.05,71.03 L 186.67,70.43 L 188.16,70.11 L 191.23,69.47 L 192.96,69.13 L 196.52,68.43 L 198.50,68.06 L 202.60,67.24 L 205.23,66.68 L 206.39,66.41 L 208.59,65.89 L 209.43,65.66 L 210.93,65.24 L 211.32,65.09 L 212.22,64.84 L 213.05,64.70 L 213.56,64.63 L 215.86,64.39 L 217.31,64.30 L 220.40,64.15 L 222.15,64.10 L 225.76,64.03 L 227.66,64.03 M 156.03,80.47 L 154.44,81.41 L 151.18,83.36 L 149.48,84.42 L 146.05,86.56 L 144.36,87.65 L 141.69,89.37 L 144.68,87.29 L 147.66,85.29 L 153.62,81.69 L 157.94,79.40 M 174.46,72.38 L 171.22,73.49 L 169.76,74.02 L 166.94,75.07 L 165.71,75.57 L 163.92,76.32 L 165.71,75.57 L 166.93,75.07 L 169.75,74.02 L 171.21,73.49 L 174.45,72.38 L 176.11,71.83 L 176.13,71.83 M 179.69,70.70 L 176.97,71.56 L 179.68,70.70 L 183.31,69.58 L 183.31,69.57 M 187.00,68.54 L 191.14,67.38 L 191.15,67.38 M 203.00,64.41 L 191.93,67.18 L 203.00,64.40 L 203.99,64.18 L 204.01,64.17 M 237.92,63.12 L 240.06,63.21 L 244.00,63.48 L 249.14,64.01 L 250.25,64.16 L 251.24,64.34 L 251.11,64.32 L 249.77,64.15 L 244.26,63.57 L 240.16,63.28 L 237.98,63.18 L 228.95,62.88 L 224.62,62.91 L 228.99,62.87 Z" fill="rgba(221,194,121,1)"/>
<path d="M 225.60,116.17 L 225.71,116.19 L 225.75,116.28 L 225.50,116.47 L 225.43,116.51 L 225.05,116.62 L 224.82,116.68 L 224.15,116.85 L 223.42,117.04 L 221.22,117.54 L 220.03,117.80 L 217.15,118.42 L 212.35,119.41 L 210.68,119.74 L 207.25,120.53 L 205.55,120.93 L 202.35,121.78 L 200.81,122.20 L 198.19,123.00 L 197.59,123.19 L 196.57,123.55 L 195.35,124.04 L 193.56,124.84 L 190.48,126.24 L 189.02,126.91 L 186.52,128.08 L 185.33,128.64 L 183.30,129.64 L 182.33,130.13 L 180.66,131.02 L 179.07,131.89 L 176.52,133.55 L 172.82,136.36 L 172.04,137.00 L 170.51,138.16 L 169.77,138.72 L 168.44,139.64 L 167.81,140.06 L 166.83,140.63 L 165.90,141.00 L 165.56,141.00 L 165.15,140.90 L 165.00,140.83 L 165.08,140.65 L 167.04,138.99 L 170.63,136.07 L 172.38,134.66 L 175.66,132.20 L 177.26,131.03 L 180.33,128.97 L 181.84,127.99 L 184.81,126.28 L 186.29,125.47 L 189.25,124.04 L 190.75,123.36 L 193.83,122.17 L 195.39,121.60 L 198.69,120.57 L 204.00,119.15 L 204.95,118.92 L 207.22,118.46 L 208.39,118.23 L 210.93,117.79 L 213.50,117.35 L 218.55,116.67 L 219.73,116.52 L 221.80,116.30 L 222.77,116.21 L 224.26,116.12 L 224.91,116.10 Z" fill="rgba(155,178,191,1)"/>
<path d="M 129.50,98.18 L 129.73,97.95 L 130.39,97.37 L 130.76,97.07 L 131.65,96.36 L 132.61,95.63 L 135.09,93.85 L 136.41,92.92 L 139.44,90.87 L 141.01,89.82 L 144.36,87.65 L 146.05,86.56 L 149.48,84.42 L 151.18,83.36 L 154.44,81.41 L 156.03,80.47 L 158.90,78.86 L 162.48,76.99 L 163.41,76.54 L 165.71,75.57 L 166.94,75.07 L 169.76,74.02 L 171.22,73.49 L 174.46,72.38 L 176.13,71.82 L 179.69,70.70 L 183.32,69.57 L 191.15,67.38 L 203.00,64.41 L 204.03,64.17 L 206.82,63.78 L 208.32,63.60 L 211.89,63.32 L 213.76,63.20 L 217.88,63.03 L 220.00,62.96 L 224.45,62.91 L 228.95,62.88 L 237.98,63.18 L 240.16,63.28 L 244.26,63.57 L 249.77,64.15 L 251.11,64.32 L 253.37,64.67 L 254.42,64.84 L 255.97,65.16 L 256.65,65.31 L 257.34,65.55 L 257.45,65.60 L 257.48,65.69 L 257.22,65.79 L 256.91,65.84 L 255.79,65.84 L 255.17,65.83 L 253.59,65.73 L 248.03,65.07 L 246.91,64.90 L 244.02,64.62 L 242.49,64.49 L 239.01,64.29 L 235.43,64.12 L 227.66,64.03 L 225.76,64.03 L 222.15,64.10 L 220.40,64.15 L 217.31,64.30 L 215.86,64.39 L 213.56,64.63 L 213.05,64.70 L 212.22,64.84 L 211.32,65.09 L 210.93,65.24 L 209.43,65.66 L 208.59,65.89 L 206.39,66.41 L 205.23,66.68 L 202.60,67.24 L 198.50,68.06 L 196.52,68.43 L 192.96,69.13 L 191.23,69.47 L 188.16,70.11 L 186.67,70.43 L 184.05,71.03 L 182.80,71.33 L 180.61,71.90 L 179.56,72.18 L 177.77,72.71 L 176.93,72.98 L 175.51,73.50 L 174.84,73.76 L 173.76,74.26 L 172.50,75.01 L 172.36,75.11 L 171.82,75.39 L 171.52,75.54 L 170.71,75.87 L 167.82,76.92 L 166.89,77.22 L 164.78,78.04 L 163.70,78.48 L 161.35,79.53 L 158.97,80.63 L 153.92,83.30 L 151.41,84.67 L 146.74,87.55 L 145.64,88.27 L 143.64,89.66 L 141.06,91.63 L 140.58,92.03 L 139.35,92.94 L 138.71,93.40 L 137.28,94.35 L 135.82,95.30 L 132.92,97.01 L 132.25,97.39 L 131.08,98.00 L 130.54,98.28 L 129.75,98.61 L 129.42,98.74 L 129.15,98.71 L 129.10,98.65 Z" fill="rgba(219,232,232,1)"/>
</g>
</svg>